<svg width="56" height="48" viewBox="0 0 56 48" fill="none" xmlns="http://www.w3.org/2000/svg">
<rect width="56" height="48" rx="5.03529" fill="#1C4C82"/>
<path d="M28 33C29.6569 33 31 31.6569 31 30C31 28.3431 29.6569 27 28 27C26.3431 27 25 28.3431 25 30C25 31.6569 26.3431 33 28 33Z" stroke="#F2F2F2" stroke-width="2" stroke-linecap="round" stroke-linejoin="round"/>
<path d="M22 21C23.6569 21 25 19.6569 25 18C25 16.3431 23.6569 15 22 15C20.3431 15 19 16.3431 19 18C19 19.6569 20.3431 21 22 21Z" stroke="#F2F2F2" stroke-width="2" stroke-linecap="round" stroke-linejoin="round"/>
<path d="M34 21C35.6569 21 37 19.6569 37 18C37 16.3431 35.6569 15 34 15C32.3431 15 31 16.3431 31 18C31 19.6569 32.3431 21 34 21Z" stroke="#F2F2F2" stroke-width="2" stroke-linecap="round" stroke-linejoin="round"/>
<path d="M34 21V22C34 22.5304 33.7893 23.0391 33.4142 23.4142C33.0391 23.7893 32.5304 24 32 24H24C23.4696 24 22.9609 23.7893 22.5858 23.4142C22.2107 23.0391 22 22.5304 22 22V21" stroke="#F2F2F2" stroke-width="2" stroke-linecap="round" stroke-linejoin="round"/>
<path d="M28 24V27" stroke="#F2F2F2" stroke-width="2" stroke-linecap="round" stroke-linejoin="round"/>
</svg>
