<svg width="104" height="122" viewBox="0 0 104 122" fill="none" xmlns="http://www.w3.org/2000/svg">
<g filter="url(#filter0_d_1095_47166)">
<g clip-path="url(#clip0_1095_47166)">
<rect x="13.5996" y="5" width="76.8" height="96" rx="3.2" fill="url(#paint0_linear_1095_47166)"/>
<rect x="65.2969" y="126.412" width="56.7928" height="99.4272" rx="24" transform="rotate(-168.727 65.2969 126.412)" fill="#1C4C82"/>
<path d="M40 53V65C40 65.7956 40.3161 66.5587 40.8787 67.1213C41.4413 67.6839 42.2044 68 43 68H61C61.7956 68 62.5587 67.6839 63.1213 67.1213C63.6839 66.5587 64 65.7956 64 65V53" stroke="white" stroke-width="3" stroke-linecap="round" stroke-linejoin="round"/>
<path d="M58 44L52 38L46 44" stroke="white" stroke-width="3" stroke-linecap="round" stroke-linejoin="round"/>
<path d="M52 38V57.5" stroke="white" stroke-width="3" stroke-linecap="round" stroke-linejoin="round"/>
</g>
</g>
<defs>
<filter id="filter0_d_1095_47166" x="0.799609" y="0.2" width="102.4" height="121.6" filterUnits="userSpaceOnUse" color-interpolation-filters="sRGB">
<feFlood flood-opacity="0" result="BackgroundImageFix"/>
<feColorMatrix in="SourceAlpha" type="matrix" values="0 0 0 0 0 0 0 0 0 0 0 0 0 0 0 0 0 0 127 0" result="hardAlpha"/>
<feOffset dy="8"/>
<feGaussianBlur stdDeviation="6.4"/>
<feComposite in2="hardAlpha" operator="out"/>
<feColorMatrix type="matrix" values="0 0 0 0 0 0 0 0 0 0.136351 0 0 0 0 0.325 0 0 0 0.05 0"/>
<feBlend mode="normal" in2="BackgroundImageFix" result="effect1_dropShadow_1095_47166"/>
<feBlend mode="normal" in="SourceGraphic" in2="effect1_dropShadow_1095_47166" result="shape"/>
</filter>
<linearGradient id="paint0_linear_1095_47166" x1="11.0733" y1="4.99998" x2="110.699" y2="13.5362" gradientUnits="userSpaceOnUse">
<stop stop-color="#1C4C82"/>
<stop offset="1"/>
</linearGradient>
<clipPath id="clip0_1095_47166">
<rect x="13.5996" y="5" width="76.8" height="96" rx="3.2" fill="white"/>
</clipPath>
</defs>
</svg>
