<svg width="104" height="122" viewBox="0 0 104 122" fill="none" xmlns="http://www.w3.org/2000/svg">
<g filter="url(#filter0_d_1095_47148)">
<g clip-path="url(#clip0_1095_47148)">
<rect x="13.5996" y="5" width="76.8" height="96" rx="3.2" fill="url(#paint0_linear_1095_47148)"/>
<rect x="83.9043" y="-18.9434" width="56.7928" height="99.4272" rx="24" transform="rotate(45 83.9043 -18.9434)" fill="#1C4C82"/>
<path d="M52 66C54.4853 66 56.5 63.9853 56.5 61.5C56.5 59.0147 54.4853 57 52 57C49.5147 57 47.5 59.0147 47.5 61.5C47.5 63.9853 49.5147 66 52 66Z" stroke="white" stroke-width="3" stroke-linecap="round" stroke-linejoin="round"/>
<path d="M43 48C45.4853 48 47.5 45.9853 47.5 43.5C47.5 41.0147 45.4853 39 43 39C40.5147 39 38.5 41.0147 38.5 43.5C38.5 45.9853 40.5147 48 43 48Z" stroke="white" stroke-width="3" stroke-linecap="round" stroke-linejoin="round"/>
<path d="M61 48C63.4853 48 65.5 45.9853 65.5 43.5C65.5 41.0147 63.4853 39 61 39C58.5147 39 56.5 41.0147 56.5 43.5C56.5 45.9853 58.5147 48 61 48Z" stroke="white" stroke-width="3" stroke-linecap="round" stroke-linejoin="round"/>
<path d="M61 48V49.5C61 50.2956 60.6839 51.0587 60.1213 51.6213C59.5587 52.1839 58.7956 52.5 58 52.5H46C45.2044 52.5 44.4413 52.1839 43.8787 51.6213C43.3161 51.0587 43 50.2956 43 49.5V48" stroke="white" stroke-width="3" stroke-linecap="round" stroke-linejoin="round"/>
<path d="M52 52.5V57" stroke="white" stroke-width="3" stroke-linecap="round" stroke-linejoin="round"/>
</g>
</g>
<defs>
<filter id="filter0_d_1095_47148" x="0.799609" y="0.2" width="102.4" height="121.6" filterUnits="userSpaceOnUse" color-interpolation-filters="sRGB">
<feFlood flood-opacity="0" result="BackgroundImageFix"/>
<feColorMatrix in="SourceAlpha" type="matrix" values="0 0 0 0 0 0 0 0 0 0 0 0 0 0 0 0 0 0 127 0" result="hardAlpha"/>
<feOffset dy="8"/>
<feGaussianBlur stdDeviation="6.4"/>
<feComposite in2="hardAlpha" operator="out"/>
<feColorMatrix type="matrix" values="0 0 0 0 0 0 0 0 0 0.136351 0 0 0 0 0.325 0 0 0 0.05 0"/>
<feBlend mode="normal" in2="BackgroundImageFix" result="effect1_dropShadow_1095_47148"/>
<feBlend mode="normal" in="SourceGraphic" in2="effect1_dropShadow_1095_47148" result="shape"/>
</filter>
<linearGradient id="paint0_linear_1095_47148" x1="11.0733" y1="4.99998" x2="110.699" y2="13.5362" gradientUnits="userSpaceOnUse">
<stop stop-color="#1C4C82"/>
<stop offset="1"/>
</linearGradient>
<clipPath id="clip0_1095_47148">
<rect x="13.5996" y="5" width="76.8" height="96" rx="3.2" fill="white"/>
</clipPath>
</defs>
</svg>
