<svg width="100%" height="auto" viewBox="0 0 390 352" fill="none" xmlns="http://www.w3.org/2000/svg">
<g filter="url(#filter0_f_1095_49073)">
<ellipse cx="115.783" cy="323.95" rx="255.429" ry="2.82242" fill="black"/>
</g>
<path d="M-113.074 15.8056C-113.074 7.38817 -106.251 0.564545 -97.8331 0.564545H331.175C339.592 0.564545 346.416 7.3882 346.416 15.8056V310.466C346.416 311.402 345.658 312.16 344.722 312.16H-111.381C-112.316 312.16 -113.074 311.402 -113.074 310.466V15.8056Z" fill="#1A202C" stroke="#4A5568" stroke-width="1.12897"/>
<path d="M-110.818 15.2411C-110.818 8.38252 -105.258 2.82251 -98.3997 2.82251H331.737C338.596 2.82251 344.156 8.38253 344.156 15.2412V300.87H-110.818V15.2411Z" fill="black"/>
<g clip-path="url(#clip0_1095_49073)">
<rect width="429.802" height="269.875" transform="translate(-99.0332 18.4531)" fill="#F2F7FC"/>
<rect x="-99.0039" y="18.5641" width="429.572" height="269.823" fill="#F2F7FC"/>
<ellipse cx="40.0744" cy="21.2287" rx="2.77561" ry="2.77561" fill="#DDDDDD"/>
<ellipse cx="85.5178" cy="21.2287" rx="2.77561" ry="2.77561" fill="#DDDDDD"/>
<ellipse cx="130.961" cy="21.2287" rx="2.77561" ry="2.77561" fill="#DDDDDD"/>
<ellipse cx="176.405" cy="21.2287" rx="2.77561" ry="2.77561" fill="#DDDDDD"/>
<ellipse cx="221.85" cy="21.2287" rx="2.77561" ry="2.77561" fill="#DDDDDD"/>
<ellipse cx="267.293" cy="21.2287" rx="2.77561" ry="2.77561" fill="#DDDDDD"/>
<ellipse cx="312.737" cy="21.2287" rx="2.77561" ry="2.77561" fill="#DDDDDD"/>
<ellipse cx="40.0744" cy="66.892" rx="2.77561" ry="2.77561" fill="#DDDDDD"/>
<ellipse cx="85.5178" cy="66.892" rx="2.77561" ry="2.77561" fill="#DDDDDD"/>
<ellipse cx="130.961" cy="66.892" rx="2.77561" ry="2.77561" fill="#DDDDDD"/>
<ellipse cx="176.405" cy="66.892" rx="2.77561" ry="2.77561" fill="#DDDDDD"/>
<ellipse cx="221.85" cy="66.892" rx="2.77561" ry="2.77561" fill="#DDDDDD"/>
<ellipse cx="267.293" cy="66.892" rx="2.77561" ry="2.77561" fill="#DDDDDD"/>
<ellipse cx="312.737" cy="66.892" rx="2.77561" ry="2.77561" fill="#DDDDDD"/>
<ellipse cx="40.0744" cy="112.555" rx="2.77561" ry="2.77561" fill="#DDDDDD"/>
<ellipse cx="85.5178" cy="112.555" rx="2.77561" ry="2.77561" fill="#DDDDDD"/>
<ellipse cx="130.961" cy="112.555" rx="2.77561" ry="2.77561" fill="#DDDDDD"/>
<ellipse cx="176.405" cy="112.555" rx="2.77561" ry="2.77561" fill="#DDDDDD"/>
<ellipse cx="221.85" cy="112.555" rx="2.77561" ry="2.77561" fill="#DDDDDD"/>
<ellipse cx="267.293" cy="112.555" rx="2.77561" ry="2.77561" fill="#DDDDDD"/>
<ellipse cx="312.737" cy="112.555" rx="2.77561" ry="2.77561" fill="#DDDDDD"/>
<ellipse cx="40.0744" cy="158.218" rx="2.77561" ry="2.77561" fill="#DDDDDD"/>
<ellipse cx="85.5178" cy="158.218" rx="2.77561" ry="2.77561" fill="#DDDDDD"/>
<ellipse cx="130.961" cy="158.218" rx="2.77561" ry="2.77561" fill="#DDDDDD"/>
<ellipse cx="176.405" cy="158.218" rx="2.77561" ry="2.77561" fill="#DDDDDD"/>
<ellipse cx="221.85" cy="158.218" rx="2.77561" ry="2.77561" fill="#DDDDDD"/>
<ellipse cx="267.293" cy="158.218" rx="2.77561" ry="2.77561" fill="#DDDDDD"/>
<ellipse cx="312.737" cy="158.218" rx="2.77561" ry="2.77561" fill="#DDDDDD"/>
<ellipse cx="40.0744" cy="203.882" rx="2.77561" ry="2.77561" fill="#DDDDDD"/>
<ellipse cx="85.5178" cy="203.882" rx="2.77561" ry="2.77561" fill="#DDDDDD"/>
<ellipse cx="130.961" cy="203.882" rx="2.77561" ry="2.77561" fill="#DDDDDD"/>
<ellipse cx="176.405" cy="203.882" rx="2.77561" ry="2.77561" fill="#DDDDDD"/>
<ellipse cx="221.85" cy="203.882" rx="2.77561" ry="2.77561" fill="#DDDDDD"/>
<ellipse cx="267.293" cy="203.882" rx="2.77561" ry="2.77561" fill="#DDDDDD"/>
<ellipse cx="312.737" cy="203.882" rx="2.77561" ry="2.77561" fill="#DDDDDD"/>
<ellipse cx="40.0744" cy="249.545" rx="2.77561" ry="2.77561" fill="#DDDDDD"/>
<ellipse cx="85.5178" cy="249.545" rx="2.77561" ry="2.77561" fill="#DDDDDD"/>
<ellipse cx="130.961" cy="249.545" rx="2.77561" ry="2.77561" fill="#DDDDDD"/>
<ellipse cx="176.405" cy="249.545" rx="2.77561" ry="2.77561" fill="#DDDDDD"/>
<ellipse cx="221.85" cy="249.545" rx="2.77561" ry="2.77561" fill="#DDDDDD"/>
<ellipse cx="267.293" cy="249.545" rx="2.77561" ry="2.77561" fill="#DDDDDD"/>
<ellipse cx="312.737" cy="249.545" rx="2.77561" ry="2.77561" fill="#DDDDDD"/>
<rect x="67.6825" y="24.7965" width="99.4461" height="18.0686" rx="2.88328" fill="white"/>
<rect x="67.6825" y="24.7965" width="99.4461" height="18.0686" rx="2.88328" stroke="#E0E0E0" stroke-width="0.384438"/>
<path d="M82.2226 35.8923C81.6321 35.8923 81.1687 35.7262 80.8325 35.3941C80.5003 35.0619 80.3343 34.5822 80.3343 33.9548V31.5251H81.1339V33.924C81.1339 34.3669 81.2282 34.6888 81.4168 34.8897C81.6096 35.0906 81.8802 35.1911 82.2288 35.1911C82.5773 35.1911 82.8459 35.0906 83.0345 34.8897C83.2232 34.6888 83.3175 34.3669 83.3175 33.924V31.5251H84.1048V33.9548C84.1048 34.5822 83.9367 35.0619 83.6004 35.3941C83.2683 35.7262 82.809 35.8923 82.2226 35.8923ZM87.0146 32.5093C87.2771 32.5093 87.5108 32.5605 87.7158 32.663C87.925 32.7656 88.089 32.9234 88.2079 33.1367C88.3268 33.3458 88.3863 33.6164 88.3863 33.9486V35.8308H87.6174V34.047C87.6174 33.7559 87.5477 33.5385 87.4083 33.395C87.273 33.2515 87.0823 33.1797 86.8363 33.1797C86.6558 33.1797 86.4959 33.2166 86.3565 33.2904C86.2171 33.3643 86.1084 33.475 86.0305 33.6226C85.9567 33.7661 85.9198 33.9486 85.9198 34.17V35.8308H85.1509V32.5462H85.8828V33.4319L85.7537 33.1613C85.8685 32.9521 86.0346 32.7922 86.2519 32.6815C86.4733 32.5667 86.7276 32.5093 87.0146 32.5093ZM90.598 35.8739C90.2372 35.8739 89.9583 35.7816 89.7615 35.5971C89.5647 35.4084 89.4662 35.1316 89.4662 34.7667V31.8204H90.2351V34.7482C90.2351 34.9041 90.2741 35.025 90.352 35.1111C90.434 35.1973 90.5468 35.2403 90.6903 35.2403C90.8625 35.2403 91.006 35.1952 91.1209 35.105L91.3361 35.6524C91.2459 35.7262 91.1352 35.7816 91.004 35.8185C90.8728 35.8554 90.7375 35.8739 90.598 35.8739ZM88.925 33.1859V32.5708H91.1147V33.1859H88.925ZM91.9686 35.8308V32.5462H92.7375V35.8308H91.9686ZM92.3562 32.0049C92.2126 32.0049 92.0937 31.9598 91.9994 31.8696C91.9092 31.7793 91.8641 31.6707 91.8641 31.5436C91.8641 31.4123 91.9092 31.3037 91.9994 31.2176C92.0937 31.1273 92.2126 31.0822 92.3562 31.0822C92.4997 31.0822 92.6166 31.1253 92.7068 31.2114C92.8011 31.2934 92.8482 31.398 92.8482 31.5251C92.8482 31.6604 92.8031 31.7752 92.7129 31.8696C92.6227 31.9598 92.5038 32.0049 92.3562 32.0049ZM94.983 35.8739C94.6222 35.8739 94.3433 35.7816 94.1465 35.5971C93.9497 35.4084 93.8512 35.1316 93.8512 34.7667V31.8204H94.6201V34.7482C94.6201 34.9041 94.6591 35.025 94.737 35.1111C94.819 35.1973 94.9318 35.2403 95.0753 35.2403C95.2475 35.2403 95.391 35.1952 95.5059 35.105L95.7211 35.6524C95.6309 35.7262 95.5202 35.7816 95.389 35.8185C95.2578 35.8554 95.1224 35.8739 94.983 35.8739ZM93.3099 33.1859V32.5708H95.4997V33.1859H93.3099ZM96.3536 35.8308V31.2668H97.1225V35.8308H96.3536ZM99.6756 35.8739C99.3106 35.8739 98.9908 35.8021 98.716 35.6586C98.4454 35.511 98.2342 35.31 98.0825 35.0558C97.9348 34.8015 97.861 34.5124 97.861 34.1885C97.861 33.8604 97.9328 33.5713 98.0763 33.3212C98.2239 33.067 98.4249 32.8681 98.6791 32.7246C98.9374 32.581 99.2306 32.5093 99.5587 32.5093C99.8786 32.5093 100.164 32.579 100.414 32.7184C100.664 32.8578 100.861 33.0547 101.004 33.3089C101.148 33.5631 101.219 33.8625 101.219 34.2069C101.219 34.2398 101.217 34.2767 101.213 34.3177C101.213 34.3587 101.211 34.3976 101.207 34.4345H98.47V33.924H100.801L100.5 34.0839C100.504 33.8953 100.465 33.7292 100.383 33.5857C100.301 33.4422 100.188 33.3294 100.045 33.2474C99.9052 33.1654 99.7432 33.1244 99.5587 33.1244C99.3701 33.1244 99.204 33.1654 99.0605 33.2474C98.921 33.3294 98.8103 33.4442 98.7283 33.5918C98.6504 33.7354 98.6114 33.9055 98.6114 34.1024V34.2254C98.6114 34.4222 98.6566 34.5965 98.7468 34.7482C98.837 34.9 98.9641 35.0168 99.1281 35.0988C99.2922 35.1809 99.4808 35.2219 99.694 35.2219C99.8786 35.2219 100.045 35.1932 100.192 35.1357C100.34 35.0783 100.471 34.9881 100.586 34.8651L100.998 35.3387C100.85 35.511 100.664 35.6442 100.438 35.7385C100.217 35.8288 99.9626 35.8739 99.6756 35.8739ZM103.348 35.8739C103.032 35.8739 102.747 35.8042 102.493 35.6647C102.243 35.5212 102.046 35.3244 101.903 35.0742C101.759 34.8241 101.687 34.5288 101.687 34.1885C101.687 33.8481 101.759 33.5529 101.903 33.3027C102.046 33.0526 102.243 32.8578 102.493 32.7184C102.747 32.579 103.032 32.5093 103.348 32.5093C103.623 32.5093 103.869 32.5708 104.086 32.6938C104.304 32.8127 104.476 32.9952 104.603 33.2412C104.73 33.4873 104.794 33.803 104.794 34.1885C104.794 34.5699 104.732 34.8856 104.609 35.1357C104.486 35.3818 104.316 35.5663 104.099 35.6893C103.881 35.8124 103.631 35.8739 103.348 35.8739ZM103.44 35.2157C103.625 35.2157 103.789 35.1747 103.932 35.0927C104.08 35.0107 104.197 34.8918 104.283 34.7359C104.373 34.5801 104.418 34.3976 104.418 34.1885C104.418 33.9753 104.373 33.7928 104.283 33.6411C104.197 33.4852 104.08 33.3663 103.932 33.2843C103.789 33.2023 103.625 33.1613 103.44 33.1613C103.256 33.1613 103.09 33.2023 102.942 33.2843C102.799 33.3663 102.682 33.4852 102.592 33.6411C102.505 33.7928 102.462 33.9753 102.462 34.1885C102.462 34.3976 102.505 34.5801 102.592 34.7359C102.682 34.8918 102.799 35.0107 102.942 35.0927C103.09 35.1747 103.256 35.2157 103.44 35.2157ZM104.437 35.8308V35.0558L104.468 34.1823L104.406 33.3089V31.2668H105.169V35.8308H104.437ZM107.955 35.8308V31.5251H109.837C110.304 31.5251 110.714 31.6153 111.067 31.7958C111.42 31.9762 111.694 32.2263 111.891 32.5462C112.088 32.866 112.186 33.2433 112.186 33.678C112.186 34.1085 112.088 34.4858 111.891 34.8097C111.694 35.1296 111.42 35.3797 111.067 35.5602C110.714 35.7406 110.304 35.8308 109.837 35.8308H107.955ZM108.754 35.1542H109.8C110.124 35.1542 110.403 35.0927 110.636 34.9697C110.874 34.8466 111.057 34.6744 111.184 34.453C111.315 34.2315 111.381 33.9732 111.381 33.678C111.381 33.3786 111.315 33.1203 111.184 32.9029C111.057 32.6815 110.874 32.5093 110.636 32.3862C110.403 32.2632 110.124 32.2017 109.8 32.2017H108.754V35.1542ZM114.439 35.8739C114.103 35.8739 113.803 35.8021 113.541 35.6586C113.278 35.511 113.071 35.31 112.92 35.0558C112.768 34.8015 112.692 34.5124 112.692 34.1885C112.692 33.8604 112.768 33.5713 112.92 33.3212C113.071 33.067 113.278 32.8681 113.541 32.7246C113.803 32.581 114.103 32.5093 114.439 32.5093C114.779 32.5093 115.081 32.581 115.343 32.7246C115.61 32.8681 115.817 33.0649 115.964 33.315C116.116 33.5652 116.192 33.8563 116.192 34.1885C116.192 34.5124 116.116 34.8015 115.964 35.0558C115.817 35.31 115.61 35.511 115.343 35.6586C115.081 35.8021 114.779 35.8739 114.439 35.8739ZM114.439 35.2157C114.627 35.2157 114.796 35.1747 114.943 35.0927C115.091 35.0107 115.206 34.8918 115.288 34.7359C115.374 34.5801 115.417 34.3976 115.417 34.1885C115.417 33.9753 115.374 33.7928 115.288 33.6411C115.206 33.4852 115.091 33.3663 114.943 33.2843C114.796 33.2023 114.629 33.1613 114.445 33.1613C114.256 33.1613 114.088 33.2023 113.941 33.2843C113.797 33.3663 113.682 33.4852 113.596 33.6411C113.51 33.7928 113.467 33.9753 113.467 34.1885C113.467 34.3976 113.51 34.5801 113.596 34.7359C113.682 34.8918 113.797 35.0107 113.941 35.0927C114.088 35.1747 114.254 35.2157 114.439 35.2157ZM118.434 35.8739C118.09 35.8739 117.782 35.8021 117.511 35.6586C117.245 35.511 117.036 35.31 116.884 35.0558C116.732 34.8015 116.656 34.5124 116.656 34.1885C116.656 33.8604 116.732 33.5713 116.884 33.3212C117.036 33.067 117.245 32.8681 117.511 32.7246C117.782 32.581 118.09 32.5093 118.434 32.5093C118.754 32.5093 119.035 32.5749 119.277 32.7061C119.523 32.8332 119.709 33.0219 119.836 33.272L119.246 33.6164C119.148 33.4606 119.027 33.3458 118.883 33.272C118.744 33.1982 118.592 33.1613 118.428 33.1613C118.239 33.1613 118.069 33.2023 117.917 33.2843C117.766 33.3663 117.647 33.4852 117.561 33.6411C117.475 33.7928 117.431 33.9753 117.431 34.1885C117.431 34.4017 117.475 34.5863 117.561 34.7421C117.647 34.8938 117.766 35.0107 117.917 35.0927C118.069 35.1747 118.239 35.2157 118.428 35.2157C118.592 35.2157 118.744 35.1788 118.883 35.105C119.027 35.0312 119.148 34.9164 119.246 34.7605L119.836 35.105C119.709 35.351 119.523 35.5417 119.277 35.677C119.035 35.8083 118.754 35.8739 118.434 35.8739ZM121.891 35.8739C121.612 35.8739 121.366 35.8226 121.153 35.7201C120.94 35.6135 120.774 35.4535 120.655 35.2403C120.536 35.023 120.477 34.7503 120.477 34.4222V32.5462H121.245V34.3177C121.245 34.6129 121.311 34.8343 121.442 34.982C121.578 35.1255 121.768 35.1973 122.014 35.1973C122.195 35.1973 122.351 35.1604 122.482 35.0865C122.617 35.0127 122.722 34.902 122.795 34.7544C122.873 34.6068 122.912 34.4243 122.912 34.2069V32.5462H123.681V35.8308H122.949V34.9451L123.078 35.2157C122.968 35.4289 122.806 35.593 122.592 35.7078C122.379 35.8185 122.146 35.8739 121.891 35.8739ZM128.834 32.5093C129.096 32.5093 129.328 32.5605 129.529 32.663C129.734 32.7656 129.894 32.9234 130.009 33.1367C130.123 33.3458 130.181 33.6164 130.181 33.9486V35.8308H129.412V34.047C129.412 33.7559 129.348 33.5385 129.221 33.395C129.094 33.2515 128.912 33.1797 128.674 33.1797C128.506 33.1797 128.356 33.2166 128.225 33.2904C128.098 33.3643 127.997 33.4729 127.923 33.6164C127.854 33.76 127.819 33.9425 127.819 34.1639V35.8308H127.05V34.047C127.05 33.7559 126.986 33.5385 126.859 33.395C126.732 33.2515 126.55 33.1797 126.312 33.1797C126.144 33.1797 125.994 33.2166 125.863 33.2904C125.736 33.3643 125.635 33.4729 125.561 33.6164C125.492 33.76 125.457 33.9425 125.457 34.1639V35.8308H124.688V32.5462H125.42V33.4196L125.291 33.1613C125.401 32.948 125.561 32.7861 125.77 32.6753C125.984 32.5646 126.226 32.5093 126.496 32.5093C126.804 32.5093 127.07 32.5851 127.296 32.7369C127.526 32.8886 127.677 33.1182 127.751 33.4258L127.45 33.3212C127.556 33.0752 127.733 32.8783 127.979 32.7307C128.225 32.5831 128.51 32.5093 128.834 32.5093ZM132.713 35.8739C132.348 35.8739 132.028 35.8021 131.754 35.6586C131.483 35.511 131.272 35.31 131.12 35.0558C130.972 34.8015 130.899 34.5124 130.899 34.1885C130.899 33.8604 130.97 33.5713 131.114 33.3212C131.262 33.067 131.462 32.8681 131.717 32.7246C131.975 32.581 132.268 32.5093 132.596 32.5093C132.916 32.5093 133.201 32.579 133.451 32.7184C133.701 32.8578 133.898 33.0547 134.042 33.3089C134.185 33.5631 134.257 33.8625 134.257 34.2069C134.257 34.2398 134.255 34.2767 134.251 34.3177C134.251 34.3587 134.249 34.3976 134.245 34.4345H131.508V33.924H133.839L133.537 34.0839C133.542 33.8953 133.503 33.7292 133.421 33.5857C133.339 33.4422 133.226 33.3294 133.082 33.2474C132.943 33.1654 132.781 33.1244 132.596 33.1244C132.408 33.1244 132.242 33.1654 132.098 33.2474C131.959 33.3294 131.848 33.4442 131.766 33.5918C131.688 33.7354 131.649 33.9055 131.649 34.1024V34.2254C131.649 34.4222 131.694 34.5965 131.784 34.7482C131.875 34.9 132.002 35.0168 132.166 35.0988C132.33 35.1809 132.518 35.2219 132.732 35.2219C132.916 35.2219 133.082 35.1932 133.23 35.1357C133.378 35.0783 133.509 34.9881 133.624 34.8651L134.036 35.3387C133.888 35.511 133.701 35.6442 133.476 35.7385C133.254 35.8288 133 35.8739 132.713 35.8739ZM136.859 32.5093C137.122 32.5093 137.356 32.5605 137.561 32.663C137.77 32.7656 137.934 32.9234 138.053 33.1367C138.172 33.3458 138.231 33.6164 138.231 33.9486V35.8308H137.462V34.047C137.462 33.7559 137.392 33.5385 137.253 33.395C137.118 33.2515 136.927 33.1797 136.681 33.1797C136.501 33.1797 136.341 33.2166 136.201 33.2904C136.062 33.3643 135.953 33.475 135.875 33.6226C135.801 33.7661 135.765 33.9486 135.765 34.17V35.8308H134.996V32.5462H135.728V33.4319L135.598 33.1613C135.713 32.9521 135.879 32.7922 136.097 32.6815C136.318 32.5667 136.572 32.5093 136.859 32.5093ZM140.443 35.8739C140.082 35.8739 139.803 35.7816 139.606 35.5971C139.409 35.4084 139.311 35.1316 139.311 34.7667V31.8204H140.08V34.7482C140.08 34.9041 140.119 35.025 140.197 35.1111C140.279 35.1973 140.392 35.2403 140.535 35.2403C140.707 35.2403 140.851 35.1952 140.966 35.105L141.181 35.6524C141.091 35.7262 140.98 35.7816 140.849 35.8185C140.718 35.8554 140.582 35.8739 140.443 35.8739ZM138.77 33.1859V32.5708H140.959V33.1859H138.77ZM143.969 35.8308V31.8327L144.319 32.1956H143.058V31.5251H144.768V35.8308H143.969Z" fill="#333333"/>
<g clip-path="url(#clip1_1095_49073)">
<path d="M153.229 31.5242C153.294 31.4471 153.375 31.3843 153.466 31.3399C153.557 31.2954 153.657 31.2703 153.758 31.2661C153.859 31.2619 153.961 31.2788 154.055 31.3156C154.149 31.3523 154.235 31.4083 154.307 31.4797C154.378 31.5512 154.434 31.6367 154.47 31.7308C154.507 31.8248 154.523 31.9254 154.518 32.026C154.513 32.1267 154.487 32.2252 154.442 32.3153C154.396 32.4054 154.332 32.4851 154.254 32.5494L150.794 36.0093L149.385 36.3938L149.769 34.9842L153.229 31.5242Z" stroke="#333333" stroke-width="0.576657" stroke-linecap="round" stroke-linejoin="round"/>
<path d="M152.717 32.0369L153.742 33.062" stroke="#333333" stroke-width="0.576657" stroke-linecap="round" stroke-linejoin="round"/>
</g>
<rect x="278.677" y="24.7965" width="48.8236" height="18.0686" rx="2.88328" fill="white"/>
<rect x="278.677" y="24.7965" width="48.8236" height="18.0686" rx="2.88328" stroke="#E0E0E0" stroke-width="0.384438"/>
<path d="M286.307 35.8739C286.02 35.8739 285.762 35.8247 285.532 35.7262C285.303 35.6237 285.122 35.4802 284.991 35.2957C284.86 35.1111 284.794 34.8959 284.794 34.6498H285.545C285.561 34.8343 285.633 34.9861 285.76 35.105C285.891 35.2239 286.074 35.2834 286.307 35.2834C286.549 35.2834 286.738 35.226 286.873 35.1111C287.009 34.9922 287.076 34.8405 287.076 34.656C287.076 34.5124 287.033 34.3956 286.947 34.3054C286.865 34.2151 286.761 34.1454 286.633 34.0962C286.51 34.047 286.338 33.9937 286.117 33.9363C285.838 33.8625 285.61 33.7887 285.434 33.7149C285.262 33.637 285.114 33.518 284.991 33.3581C284.868 33.1982 284.807 32.9849 284.807 32.7184C284.807 32.4724 284.868 32.2571 284.991 32.0725C285.114 31.888 285.286 31.7465 285.508 31.6481C285.729 31.5497 285.986 31.5005 286.277 31.5005C286.691 31.5005 287.029 31.6051 287.292 31.8142C287.558 32.0192 287.706 32.3022 287.734 32.663H286.959C286.947 32.5072 286.873 32.3739 286.738 32.2632C286.603 32.1525 286.424 32.0971 286.203 32.0971C286.002 32.0971 285.838 32.1484 285.711 32.2509C285.584 32.3534 285.52 32.5011 285.52 32.6938C285.52 32.825 285.559 32.9337 285.637 33.0198C285.719 33.1018 285.821 33.1674 285.944 33.2166C286.068 33.2658 286.236 33.3191 286.449 33.3766C286.732 33.4545 286.961 33.5324 287.138 33.6103C287.318 33.6882 287.47 33.8092 287.593 33.9732C287.72 34.1331 287.784 34.3484 287.784 34.6191C287.784 34.8364 287.724 35.0414 287.605 35.2342C287.49 35.4269 287.32 35.5827 287.095 35.7016C286.873 35.8165 286.611 35.8739 286.307 35.8739ZM288.377 34.1208C288.377 33.7805 288.447 33.4791 288.586 33.2166C288.73 32.9542 288.923 32.7512 289.165 32.6077C289.411 32.4601 289.681 32.3862 289.977 32.3862C290.243 32.3862 290.475 32.4396 290.672 32.5462C290.873 32.6487 291.033 32.7779 291.151 32.9337V32.4416H291.859V35.8308H291.151V35.3264C291.033 35.4864 290.871 35.6196 290.665 35.7262C290.46 35.8329 290.227 35.8862 289.964 35.8862C289.673 35.8862 289.407 35.8124 289.165 35.6647C288.923 35.513 288.73 35.3039 288.586 35.0373C288.447 34.7667 288.377 34.4612 288.377 34.1208ZM291.151 34.1331C291.151 33.8994 291.102 33.6964 291.004 33.5242C290.909 33.352 290.784 33.2207 290.629 33.1305C290.473 33.0403 290.305 32.9952 290.124 32.9952C289.944 32.9952 289.776 33.0403 289.62 33.1305C289.464 33.2166 289.337 33.3458 289.238 33.518C289.144 33.6862 289.097 33.8871 289.097 34.1208C289.097 34.3546 289.144 34.5596 289.238 34.7359C289.337 34.9123 289.464 35.0476 289.62 35.1419C289.78 35.2321 289.948 35.2772 290.124 35.2772C290.305 35.2772 290.473 35.2321 290.629 35.1419C290.784 35.0517 290.909 34.9205 291.004 34.7482C291.102 34.5719 291.151 34.3669 291.151 34.1331ZM294.09 35.2034L295.05 32.4416H295.794L294.502 35.8308H293.666L292.38 32.4416H293.13L294.09 35.2034ZM299.43 34.0532C299.43 34.1803 299.422 34.2951 299.405 34.3976H296.816C296.836 34.6683 296.937 34.8856 297.117 35.0496C297.298 35.2137 297.519 35.2957 297.782 35.2957C298.159 35.2957 298.425 35.1378 298.581 34.822H299.338C299.235 35.1337 299.049 35.39 298.778 35.5909C298.512 35.7878 298.179 35.8862 297.782 35.8862C297.458 35.8862 297.167 35.8144 296.908 35.6709C296.654 35.5233 296.453 35.3182 296.305 35.0558C296.162 34.7892 296.09 34.4817 296.09 34.1331C296.09 33.7846 296.16 33.4791 296.299 33.2166C296.443 32.9501 296.642 32.7451 296.896 32.6015C297.154 32.458 297.449 32.3862 297.782 32.3862C298.101 32.3862 298.386 32.456 298.637 32.5954C298.887 32.7348 299.082 32.9316 299.221 33.1859C299.36 33.436 299.43 33.7251 299.43 34.0532ZM298.698 33.8317C298.694 33.5734 298.602 33.3663 298.421 33.2105C298.241 33.0547 298.017 32.9767 297.751 32.9767C297.509 32.9767 297.302 33.0547 297.13 33.2105C296.957 33.3622 296.855 33.5693 296.822 33.8317H298.698ZM304.295 34.9574H302.505L302.198 35.8308H301.466L302.997 31.5497H303.809L305.341 35.8308H304.603L304.295 34.9574ZM304.098 34.3853L303.403 32.3985L302.702 34.3853H304.098ZM307.237 35.8862C306.971 35.8862 306.731 35.839 306.517 35.7447C306.308 35.6463 306.142 35.5151 306.019 35.351C305.896 35.1829 305.831 34.9963 305.822 34.7913H306.548C306.56 34.9348 306.628 35.0558 306.751 35.1542C306.878 35.2485 307.036 35.2957 307.225 35.2957C307.422 35.2957 307.573 35.2588 307.68 35.185C307.791 35.107 307.846 35.0086 307.846 34.8897C307.846 34.7626 307.785 34.6683 307.661 34.6068C307.543 34.5453 307.352 34.4776 307.089 34.4038C306.835 34.3341 306.628 34.2664 306.468 34.2008C306.308 34.1352 306.169 34.0347 306.05 33.8994C305.935 33.7641 305.878 33.5857 305.878 33.3643C305.878 33.1838 305.931 33.0198 306.038 32.8722C306.144 32.7205 306.296 32.6015 306.493 32.5154C306.694 32.4293 306.923 32.3862 307.182 32.3862C307.567 32.3862 307.877 32.4847 308.111 32.6815C308.348 32.8742 308.475 33.1387 308.492 33.475H307.791C307.778 33.3233 307.717 33.2023 307.606 33.1121C307.495 33.0219 307.346 32.9767 307.157 32.9767C306.973 32.9767 306.831 33.0116 306.733 33.0813C306.634 33.151 306.585 33.2433 306.585 33.3581C306.585 33.4483 306.618 33.5242 306.683 33.5857C306.749 33.6472 306.829 33.6964 306.923 33.7333C307.018 33.7661 307.157 33.8092 307.342 33.8625C307.588 33.9281 307.789 33.9958 307.944 34.0655C308.104 34.1311 308.242 34.2295 308.357 34.3607C308.471 34.4919 308.531 34.6662 308.535 34.8836C308.535 35.0763 308.482 35.2485 308.375 35.4002C308.268 35.552 308.117 35.6709 307.92 35.757C307.727 35.8431 307.5 35.8862 307.237 35.8862Z" fill="#1C4C82"/>
<path d="M317.125 33.062L318.663 34.5998L320.201 33.062" stroke="#1C4C82" stroke-width="0.512584" stroke-linecap="round" stroke-linejoin="round"/>
<rect x="43.1328" y="162.142" width="58.2034" height="58.5081" fill="#FFE1E1"/>
<rect x="92.502" y="70.4178" width="39.6149" height="47.5379" fill="#E1EFFF"/>
<rect x="58.6758" y="188.044" width="27.8757" height="6.87568" rx="1.21892" fill="white"/>
<path d="M62.2679 192.509C62.118 192.509 61.9799 192.485 61.8538 192.438C61.7294 192.388 61.6207 192.32 61.5274 192.232C61.4342 192.142 61.3619 192.037 61.3107 191.917C61.2596 191.796 61.234 191.664 61.234 191.522C61.234 191.379 61.2596 191.247 61.3107 191.127C61.3619 191.006 61.4342 190.902 61.5274 190.814C61.6225 190.724 61.7331 190.656 61.8593 190.608C61.9854 190.559 62.1235 190.534 62.2734 190.534C62.4361 190.534 62.5824 190.561 62.7122 190.614C62.8438 190.667 62.9545 190.745 63.044 190.847L62.8192 191.066C62.7442 190.991 62.6628 190.937 62.5751 190.902C62.4891 190.865 62.3941 190.847 62.2898 190.847C62.1893 190.847 62.096 190.863 62.0101 190.896C61.9242 190.929 61.8501 190.976 61.788 191.036C61.7258 191.097 61.6773 191.168 61.6426 191.25C61.6097 191.332 61.5932 191.423 61.5932 191.522C61.5932 191.619 61.6097 191.708 61.6426 191.79C61.6773 191.873 61.7258 191.945 61.788 192.007C61.8501 192.067 61.9233 192.114 62.0074 192.147C62.0915 192.18 62.1847 192.196 62.2871 192.196C62.3822 192.196 62.4736 192.182 62.5614 192.152C62.6509 192.121 62.736 192.07 62.8164 191.999L63.0194 192.265C62.9188 192.345 62.8018 192.407 62.6683 192.449C62.5367 192.489 62.4032 192.509 62.2679 192.509ZM62.682 192.218V191.5H63.0194V192.265L62.682 192.218ZM64.0765 192.501C63.9522 192.501 63.8425 192.478 63.7474 192.432C63.6523 192.385 63.5783 192.313 63.5253 192.218C63.4722 192.121 63.4457 192 63.4457 191.853V191.017H63.7886V191.807C63.7886 191.938 63.8178 192.037 63.8763 192.103C63.9366 192.167 64.0217 192.199 64.1314 192.199C64.2118 192.199 64.2813 192.183 64.3398 192.15C64.4001 192.117 64.4468 192.067 64.4797 192.002C64.5144 191.936 64.5318 191.854 64.5318 191.757V191.017H64.8746V192.482H64.5482V192.087L64.6058 192.207C64.5565 192.302 64.4842 192.375 64.3892 192.427C64.2941 192.476 64.1899 192.501 64.0765 192.501ZM66.0119 192.501C65.8491 192.501 65.7065 192.469 65.584 192.405C65.4633 192.339 65.3692 192.249 65.3015 192.136C65.2357 192.023 65.2028 191.894 65.2028 191.749C65.2028 191.603 65.2348 191.474 65.2988 191.363C65.3646 191.249 65.4542 191.161 65.5676 191.097C65.6827 191.033 65.8135 191.001 65.9597 191.001C66.1024 191.001 66.2294 191.032 66.341 191.094C66.4525 191.156 66.5403 191.244 66.6042 191.357C66.6682 191.47 66.7002 191.604 66.7002 191.757C66.7002 191.772 66.6993 191.789 66.6975 191.807C66.6975 191.825 66.6966 191.842 66.6948 191.859H65.4743V191.631H66.5137L66.3794 191.703C66.3812 191.619 66.3638 191.544 66.3272 191.48C66.2907 191.416 66.2404 191.366 66.1764 191.33C66.1142 191.293 66.042 191.275 65.9597 191.275C65.8756 191.275 65.8016 191.293 65.7376 191.33C65.6754 191.366 65.6261 191.417 65.5895 191.483C65.5548 191.547 65.5374 191.623 65.5374 191.711V191.766C65.5374 191.853 65.5575 191.931 65.5977 191.999C65.6379 192.066 65.6946 192.119 65.7678 192.155C65.8409 192.192 65.925 192.21 66.0201 192.21C66.1024 192.21 66.1764 192.197 66.2422 192.172C66.308 192.146 66.3666 192.106 66.4178 192.051L66.6015 192.262C66.5357 192.339 66.4525 192.398 66.3519 192.44C66.2532 192.481 66.1398 192.501 66.0119 192.501ZM67.4821 192.501C67.3596 192.501 67.2416 192.485 67.1283 192.454C67.0167 192.421 66.9281 192.382 66.8622 192.336L66.9939 192.076C67.0597 192.118 67.1383 192.152 67.2297 192.18C67.3212 192.207 67.4126 192.221 67.504 192.221C67.6119 192.221 67.6896 192.206 67.7371 192.177C67.7865 192.148 67.8112 192.109 67.8112 192.059C67.8112 192.019 67.7947 191.989 67.7618 191.969C67.7289 191.947 67.6859 191.93 67.6329 191.919C67.5799 191.908 67.5205 191.898 67.4546 191.889C67.3906 191.88 67.3257 191.868 67.2599 191.853C67.1959 191.837 67.1374 191.814 67.0844 191.785C67.0314 191.754 66.9884 191.713 66.9555 191.661C66.9226 191.61 66.9061 191.543 66.9061 191.459C66.9061 191.365 66.9326 191.285 66.9857 191.217C67.0387 191.148 67.1127 191.095 67.2078 191.058C67.3047 191.02 67.419 191.001 67.5506 191.001C67.6494 191.001 67.749 191.011 67.8496 191.033C67.9501 191.055 68.0333 191.086 68.0991 191.127L67.9675 191.387C67.898 191.345 67.8276 191.317 67.7563 191.302C67.6868 191.286 67.6174 191.278 67.5479 191.278C67.4437 191.278 67.366 191.293 67.3148 191.324C67.2654 191.355 67.2407 191.395 67.2407 191.442C67.2407 191.486 67.2572 191.519 67.2901 191.541C67.323 191.563 67.366 191.58 67.419 191.593C67.472 191.606 67.5305 191.617 67.5945 191.626C67.6603 191.633 67.7252 191.645 67.7892 191.661C67.8532 191.678 67.9117 191.701 67.9648 191.73C68.0196 191.757 68.0635 191.797 68.0964 191.848C68.1293 191.899 68.1458 191.966 68.1458 192.048C68.1458 192.14 68.1183 192.219 68.0635 192.287C68.0105 192.354 67.9346 192.407 67.8359 192.446C67.7371 192.482 67.6192 192.501 67.4821 192.501ZM68.9923 192.501C68.8314 192.501 68.707 192.46 68.6193 192.377C68.5315 192.293 68.4876 192.17 68.4876 192.007V190.693H68.8304V191.999C68.8304 192.068 68.8478 192.122 68.8826 192.161C68.9191 192.199 68.9694 192.218 69.0334 192.218C69.1102 192.218 69.1742 192.198 69.2254 192.158L69.3214 192.402C69.2811 192.435 69.2318 192.46 69.1733 192.476C69.1148 192.492 69.0544 192.501 68.9923 192.501ZM68.2463 191.302V191.028H69.2226V191.302H68.2463ZM70.3942 192.482V190.562H71.2938C71.5242 190.562 71.6997 190.607 71.8204 190.699C71.9411 190.788 72.0014 190.909 72.0014 191.061C72.0014 191.163 71.9776 191.251 71.9301 191.324C71.8825 191.395 71.8185 191.451 71.7381 191.491C71.6595 191.53 71.5735 191.549 71.4803 191.549L71.5297 191.45C71.6375 191.45 71.7344 191.47 71.8204 191.511C71.9063 191.549 71.974 191.606 72.0233 191.681C72.0745 191.756 72.1001 191.849 72.1001 191.96C72.1001 192.125 72.037 192.253 71.9109 192.344C71.7847 192.436 71.5973 192.482 71.3487 192.482H70.3942ZM70.7508 192.202H71.3267C71.4602 192.202 71.5626 192.18 71.6339 192.136C71.7052 192.092 71.7408 192.022 71.7408 191.925C71.7408 191.83 71.7052 191.76 71.6339 191.716C71.5626 191.671 71.4602 191.648 71.3267 191.648H70.7234V191.371H71.2554C71.3797 191.371 71.4748 191.349 71.5406 191.305C71.6083 191.261 71.6421 191.195 71.6421 191.107C71.6421 191.018 71.6083 190.951 71.5406 190.907C71.4748 190.863 71.3797 190.841 71.2554 190.841H70.7508V192.202ZM73.1361 192.501C72.9734 192.501 72.8308 192.469 72.7083 192.405C72.5876 192.339 72.4934 192.249 72.4258 192.136C72.36 192.023 72.327 191.894 72.327 191.749C72.327 191.603 72.359 191.474 72.423 191.363C72.4889 191.249 72.5784 191.161 72.6918 191.097C72.807 191.033 72.9377 191.001 73.084 191.001C73.2266 191.001 73.3537 191.032 73.4652 191.094C73.5767 191.156 73.6645 191.244 73.7285 191.357C73.7925 191.47 73.8245 191.604 73.8245 191.757C73.8245 191.772 73.8236 191.789 73.8217 191.807C73.8217 191.825 73.8208 191.842 73.819 191.859H72.5986V191.631H73.638L73.5036 191.703C73.5054 191.619 73.4881 191.544 73.4515 191.48C73.4149 191.416 73.3647 191.366 73.3007 191.33C73.2385 191.293 73.1663 191.275 73.084 191.275C72.9999 191.275 72.9258 191.293 72.8618 191.33C72.7997 191.366 72.7503 191.417 72.7137 191.483C72.679 191.547 72.6616 191.623 72.6616 191.711V191.766C72.6616 191.853 72.6818 191.931 72.722 191.999C72.7622 192.066 72.8189 192.119 72.892 192.155C72.9651 192.192 73.0493 192.21 73.1443 192.21C73.2266 192.21 73.3007 192.197 73.3665 192.172C73.4323 192.146 73.4908 192.106 73.542 192.051L73.7258 192.262C73.6599 192.339 73.5767 192.398 73.4762 192.44C73.3774 192.481 73.2641 192.501 73.1361 192.501ZM74.7736 192.501C74.6328 192.501 74.5058 192.47 74.3924 192.407C74.2809 192.343 74.1931 192.256 74.1291 192.144C74.0651 192.033 74.0331 191.901 74.0331 191.749C74.0331 191.597 74.0651 191.466 74.1291 191.354C74.1931 191.243 74.2809 191.156 74.3924 191.094C74.5058 191.032 74.6328 191.001 74.7736 191.001C74.8961 191.001 75.0058 191.028 75.1027 191.083C75.1996 191.136 75.2764 191.217 75.3331 191.327C75.3898 191.437 75.4181 191.577 75.4181 191.749C75.4181 191.919 75.3907 192.06 75.3358 192.172C75.281 192.281 75.2051 192.364 75.1082 192.418C75.0113 192.473 74.8998 192.501 74.7736 192.501ZM74.8147 192.207C74.897 192.207 74.9702 192.189 75.0342 192.152C75.1 192.116 75.1521 192.063 75.1905 191.993C75.2307 191.924 75.2508 191.842 75.2508 191.749C75.2508 191.654 75.2307 191.573 75.1905 191.505C75.1521 191.436 75.1 191.383 75.0342 191.346C74.9702 191.31 74.897 191.291 74.8147 191.291C74.7325 191.291 74.6584 191.31 74.5926 191.346C74.5286 191.383 74.4765 191.436 74.4363 191.505C74.3979 191.573 74.3787 191.654 74.3787 191.749C74.3787 191.842 74.3979 191.924 74.4363 191.993C74.4765 192.063 74.5286 192.116 74.5926 192.152C74.6584 192.189 74.7325 192.207 74.8147 192.207ZM75.259 192.482V192.136L75.2728 191.746L75.2453 191.357V190.447H75.5854V192.482H75.259ZM76.0366 192.482V191.017H76.363V191.42L76.3246 191.302C76.3685 191.203 76.437 191.129 76.5303 191.077C76.6254 191.026 76.7433 191.001 76.8841 191.001V191.327C76.8695 191.323 76.8557 191.321 76.8429 191.321C76.8301 191.32 76.8173 191.319 76.8045 191.319C76.6747 191.319 76.5714 191.357 76.4946 191.434C76.4178 191.509 76.3794 191.621 76.3794 191.771V192.482H76.0366ZM77.8197 192.501C77.6698 192.501 77.5363 192.469 77.4193 192.405C77.3023 192.339 77.21 192.249 77.1423 192.136C77.0747 192.023 77.0408 191.894 77.0408 191.749C77.0408 191.603 77.0747 191.474 77.1423 191.363C77.21 191.249 77.3023 191.161 77.4193 191.097C77.5363 191.033 77.6698 191.001 77.8197 191.001C77.9715 191.001 78.1059 191.033 78.2229 191.097C78.3417 191.161 78.4341 191.248 78.4999 191.36C78.5675 191.471 78.6014 191.601 78.6014 191.749C78.6014 191.894 78.5675 192.023 78.4999 192.136C78.4341 192.249 78.3417 192.339 78.2229 192.405C78.1059 192.469 77.9715 192.501 77.8197 192.501ZM77.8197 192.207C77.9038 192.207 77.9788 192.189 78.0446 192.152C78.1104 192.116 78.1616 192.063 78.1982 191.993C78.2366 191.924 78.2558 191.842 78.2558 191.749C78.2558 191.654 78.2366 191.573 78.1982 191.505C78.1616 191.436 78.1104 191.383 78.0446 191.346C77.9788 191.31 77.9047 191.291 77.8225 191.291C77.7384 191.291 77.6634 191.31 77.5976 191.346C77.5336 191.383 77.4824 191.436 77.444 191.505C77.4056 191.573 77.3864 191.654 77.3864 191.749C77.3864 191.842 77.4056 191.924 77.444 191.993C77.4824 192.063 77.5336 192.116 77.5976 192.152C77.6634 192.189 77.7374 192.207 77.8197 192.207ZM79.5874 192.501C79.4375 192.501 79.304 192.469 79.187 192.405C79.07 192.339 78.9776 192.249 78.91 192.136C78.8423 192.023 78.8085 191.894 78.8085 191.749C78.8085 191.603 78.8423 191.474 78.91 191.363C78.9776 191.249 79.07 191.161 79.187 191.097C79.304 191.033 79.4375 191.001 79.5874 191.001C79.7392 191.001 79.8735 191.033 79.9906 191.097C80.1094 191.161 80.2017 191.248 80.2676 191.36C80.3352 191.471 80.369 191.601 80.369 191.749C80.369 191.894 80.3352 192.023 80.2676 192.136C80.2017 192.249 80.1094 192.339 79.9906 192.405C79.8735 192.469 79.7392 192.501 79.5874 192.501ZM79.5874 192.207C79.6715 192.207 79.7465 192.189 79.8123 192.152C79.8781 192.116 79.9293 192.063 79.9659 191.993C80.0043 191.924 80.0235 191.842 80.0235 191.749C80.0235 191.654 80.0043 191.573 79.9659 191.505C79.9293 191.436 79.8781 191.383 79.8123 191.346C79.7465 191.31 79.6724 191.291 79.5901 191.291C79.506 191.291 79.4311 191.31 79.3652 191.346C79.3013 191.383 79.2501 191.436 79.2117 191.505C79.1733 191.573 79.1541 191.654 79.1541 191.749C79.1541 191.842 79.1733 191.924 79.2117 191.993C79.2501 192.063 79.3013 192.116 79.3652 192.152C79.4311 192.189 79.5051 192.207 79.5874 192.207ZM82.5453 191.001C82.6624 191.001 82.7657 191.023 82.8553 191.069C82.9467 191.115 83.018 191.185 83.0692 191.28C83.1204 191.374 83.146 191.494 83.146 191.642V192.482H82.8031V191.686C82.8031 191.556 82.7748 191.459 82.7181 191.395C82.6614 191.331 82.5801 191.299 82.474 191.299C82.3991 191.299 82.3323 191.316 82.2738 191.349C82.2172 191.382 82.1724 191.43 82.1394 191.494C82.1084 191.558 82.0928 191.64 82.0928 191.738V192.482H81.75V191.686C81.75 191.556 81.7217 191.459 81.665 191.395C81.6083 191.331 81.5269 191.299 81.4209 191.299C81.3459 191.299 81.2792 191.316 81.2207 191.349C81.164 191.382 81.1192 191.43 81.0863 191.494C81.0552 191.558 81.0397 191.64 81.0397 191.738V192.482H80.6969V191.017H81.0232V191.406L80.9656 191.291C81.015 191.196 81.0863 191.124 81.1795 191.075C81.2746 191.025 81.3825 191.001 81.5032 191.001C81.6403 191.001 81.7591 191.034 81.8597 191.102C81.9621 191.17 82.0297 191.272 82.0627 191.409L81.9283 191.363C81.9758 191.253 82.0544 191.165 82.1641 191.099C82.2738 191.033 82.4009 191.001 82.5453 191.001Z" fill="#4F4F4F"/>
<rect x="106.824" y="90.8349" width="11.8757" height="6.87568" rx="1.21892" fill="white"/>
<path d="M109.909 95.2728V93.6547H109.273V93.353H110.902V93.6547H110.265V95.2728H109.909ZM111.961 95.2728V94.9766L111.942 94.9135V94.3951C111.942 94.2946 111.912 94.2169 111.851 94.162C111.791 94.1053 111.7 94.077 111.577 94.077C111.495 94.077 111.413 94.0898 111.333 94.1154C111.254 94.141 111.188 94.1767 111.133 94.2224L110.998 93.9728C111.077 93.9125 111.17 93.8677 111.278 93.8384C111.388 93.8073 111.501 93.7918 111.618 93.7918C111.83 93.7918 111.994 93.843 112.109 93.9454C112.226 94.0459 112.285 94.2022 112.285 94.4143V95.2728H111.961ZM111.5 95.292C111.391 95.292 111.295 95.2737 111.212 95.2371C111.13 95.1987 111.066 95.1466 111.02 95.0808C110.976 95.0131 110.955 94.9373 110.955 94.8532C110.955 94.7709 110.974 94.6968 111.012 94.631C111.052 94.5652 111.117 94.5131 111.207 94.4747C111.296 94.4363 111.415 94.4171 111.563 94.4171H111.988V94.6447H111.588C111.471 94.6447 111.392 94.6639 111.352 94.7023C111.312 94.7389 111.292 94.7846 111.292 94.8394C111.292 94.9016 111.317 94.951 111.366 94.9875C111.415 95.0241 111.484 95.0424 111.572 95.0424C111.656 95.0424 111.731 95.0232 111.797 94.9848C111.864 94.9464 111.913 94.8897 111.942 94.8148L111.999 95.0204C111.967 95.1064 111.907 95.1731 111.821 95.2207C111.737 95.2682 111.63 95.292 111.5 95.292ZM113.391 95.824C113.256 95.824 113.123 95.8057 112.993 95.7692C112.865 95.7344 112.76 95.6832 112.678 95.6156L112.832 95.3578C112.896 95.4108 112.976 95.4529 113.073 95.4839C113.172 95.5169 113.271 95.5333 113.372 95.5333C113.533 95.5333 113.651 95.4958 113.726 95.4209C113.801 95.3477 113.838 95.2371 113.838 95.089V94.8285L113.866 94.4966L113.855 94.1648V93.8082H114.181V95.0506C114.181 95.3157 114.113 95.5105 113.978 95.6348C113.843 95.7609 113.647 95.824 113.391 95.824ZM113.347 95.2069C113.208 95.2069 113.082 95.1777 112.969 95.1192C112.857 95.0588 112.768 94.9757 112.703 94.8696C112.639 94.7636 112.607 94.6392 112.607 94.4966C112.607 94.3558 112.639 94.2324 112.703 94.1264C112.768 94.0203 112.857 93.938 112.969 93.8795C113.082 93.821 113.208 93.7918 113.347 93.7918C113.471 93.7918 113.583 93.8165 113.682 93.8658C113.78 93.9152 113.859 93.992 113.918 94.0962C113.978 94.2004 114.008 94.3339 114.008 94.4966C114.008 94.6593 113.978 94.7937 113.918 94.8998C113.859 95.004 113.78 95.0817 113.682 95.1329C113.583 95.1823 113.471 95.2069 113.347 95.2069ZM113.399 94.9162C113.485 94.9162 113.562 94.8989 113.63 94.8641C113.697 94.8276 113.749 94.7782 113.786 94.716C113.824 94.652 113.844 94.5789 113.844 94.4966C113.844 94.4143 113.824 94.3421 113.786 94.28C113.749 94.216 113.697 94.1675 113.63 94.1346C113.562 94.0999 113.485 94.0825 113.399 94.0825C113.313 94.0825 113.236 94.0999 113.166 94.1346C113.099 94.1675 113.045 94.216 113.007 94.28C112.971 94.3421 112.952 94.4143 112.952 94.4966C112.952 94.5789 112.971 94.652 113.007 94.716C113.045 94.7782 113.099 94.8276 113.166 94.8641C113.236 94.8989 113.313 94.9162 113.399 94.9162ZM115.084 95.292C114.962 95.292 114.844 95.2764 114.73 95.2453C114.619 95.2124 114.53 95.1731 114.464 95.1274L114.596 94.8669C114.662 94.9089 114.74 94.9437 114.832 94.9711C114.923 94.9985 115.015 95.0122 115.106 95.0122C115.214 95.0122 115.292 94.9976 115.339 94.9683C115.389 94.9391 115.413 94.8998 115.413 94.8504C115.413 94.8102 115.397 94.78 115.364 94.7599C115.331 94.738 115.288 94.7215 115.235 94.7105C115.182 94.6996 115.123 94.6895 115.057 94.6804C114.993 94.6712 114.928 94.6593 114.862 94.6447C114.798 94.6283 114.739 94.6054 114.686 94.5762C114.633 94.5451 114.59 94.5039 114.558 94.4527C114.525 94.4015 114.508 94.3339 114.508 94.2498C114.508 94.1565 114.535 94.0761 114.588 94.0084C114.641 93.939 114.715 93.8859 114.81 93.8494C114.907 93.811 115.021 93.7918 115.153 93.7918C115.251 93.7918 115.351 93.8027 115.452 93.8247C115.552 93.8466 115.635 93.8777 115.701 93.9179L115.57 94.1785C115.5 94.1364 115.43 94.1081 115.358 94.0935C115.289 94.077 115.219 94.0688 115.15 94.0688C115.046 94.0688 114.968 94.0843 114.917 94.1154C114.867 94.1465 114.843 94.1858 114.843 94.2333C114.843 94.2772 114.859 94.3101 114.892 94.3321C114.925 94.354 114.968 94.3714 115.021 94.3842C115.074 94.397 115.133 94.4079 115.197 94.4171C115.262 94.4244 115.327 94.4363 115.391 94.4527C115.455 94.4692 115.514 94.492 115.567 94.5213C115.622 94.5487 115.666 94.588 115.698 94.6392C115.731 94.6904 115.748 94.7572 115.748 94.8394C115.748 94.9309 115.72 95.0104 115.666 95.078C115.613 95.1457 115.537 95.1987 115.438 95.2371C115.339 95.2737 115.221 95.292 115.084 95.292Z" fill="#4F4F4F"/>
<rect x="72.3887" y="237.715" width="28.8757" height="6.87568" rx="1.21892" fill="white"/>
<path d="M75.9095 242.18C75.6462 242.18 75.4396 242.106 75.2897 241.958C75.1416 241.81 75.0675 241.596 75.0675 241.316V240.233H75.4241V241.302C75.4241 241.5 75.4661 241.643 75.5502 241.733C75.6361 241.823 75.7568 241.867 75.9122 241.867C76.0676 241.867 76.1874 241.823 76.2715 241.733C76.3556 241.643 76.3977 241.5 76.3977 241.302V240.233H76.7487V241.316C76.7487 241.596 76.6737 241.81 76.5238 241.958C76.3757 242.106 76.1709 242.18 75.9095 242.18ZM78.0461 240.672C78.1631 240.672 78.2674 240.694 78.3588 240.74C78.452 240.786 78.5252 240.856 78.5782 240.951C78.6312 241.045 78.6577 241.165 78.6577 241.313V242.153H78.3149V241.357C78.3149 241.227 78.2838 241.13 78.2216 241.066C78.1613 241.002 78.0763 240.97 77.9666 240.97C77.8861 240.97 77.8148 240.987 77.7527 241.02C77.6905 241.053 77.642 241.102 77.6073 241.168C77.5744 241.232 77.5579 241.313 77.5579 241.412V242.153H77.2151V240.688H77.5415V241.083L77.4839 240.962C77.5351 240.869 77.6091 240.798 77.706 240.748C77.8048 240.697 77.9181 240.672 78.0461 240.672ZM79.7672 242.172C79.6136 242.172 79.4765 242.14 79.3558 242.076C79.237 242.01 79.1437 241.92 79.0761 241.807C79.0084 241.694 78.9746 241.565 78.9746 241.42C78.9746 241.274 79.0084 241.145 79.0761 241.034C79.1437 240.92 79.237 240.832 79.3558 240.768C79.4765 240.704 79.6136 240.672 79.7672 240.672C79.9098 240.672 80.0351 240.701 80.1429 240.759C80.2526 240.816 80.3358 240.9 80.3925 241.012L80.1292 241.165C80.0853 241.096 80.0314 241.045 79.9674 241.012C79.9053 240.979 79.8376 240.962 79.7645 240.962C79.6804 240.962 79.6045 240.981 79.5368 241.017C79.4692 241.054 79.4162 241.107 79.3778 241.176C79.3394 241.244 79.3202 241.325 79.3202 241.42C79.3202 241.515 79.3394 241.598 79.3778 241.667C79.4162 241.735 79.4692 241.787 79.5368 241.823C79.6045 241.86 79.6804 241.878 79.7645 241.878C79.8376 241.878 79.9053 241.862 79.9674 241.829C80.0314 241.796 80.0853 241.745 80.1292 241.675L80.3925 241.829C80.3358 241.939 80.2526 242.024 80.1429 242.084C80.0351 242.142 79.9098 242.172 79.7672 242.172ZM81.3257 242.172C81.1757 242.172 81.0423 242.14 80.9252 242.076C80.8082 242.01 80.7159 241.92 80.6482 241.807C80.5806 241.694 80.5468 241.565 80.5468 241.42C80.5468 241.274 80.5806 241.145 80.6482 241.034C80.7159 240.92 80.8082 240.832 80.9252 240.768C81.0423 240.704 81.1757 240.672 81.3257 240.672C81.4774 240.672 81.6118 240.704 81.7288 240.768C81.8477 240.832 81.94 240.919 82.0058 241.031C82.0735 241.142 82.1073 241.272 82.1073 241.42C82.1073 241.565 82.0735 241.694 82.0058 241.807C81.94 241.92 81.8477 242.01 81.7288 242.076C81.6118 242.14 81.4774 242.172 81.3257 242.172ZM81.3257 241.878C81.4098 241.878 81.4847 241.86 81.5505 241.823C81.6164 241.787 81.6676 241.734 81.7041 241.664C81.7425 241.595 81.7617 241.514 81.7617 241.42C81.7617 241.325 81.7425 241.244 81.7041 241.176C81.6676 241.107 81.6164 241.054 81.5505 241.017C81.4847 240.981 81.4107 240.962 81.3284 240.962C81.2443 240.962 81.1693 240.981 81.1035 241.017C81.0395 241.054 80.9883 241.107 80.9499 241.176C80.9115 241.244 80.8923 241.325 80.8923 241.42C80.8923 241.514 80.9115 241.595 80.9499 241.664C80.9883 241.734 81.0395 241.787 81.1035 241.823C81.1693 241.86 81.2434 241.878 81.3257 241.878ZM82.4351 242.153V240.118H82.7779V242.153H82.4351ZM83.8861 242.172C83.7362 242.172 83.6027 242.14 83.4857 242.076C83.3687 242.01 83.2763 241.92 83.2087 241.807C83.141 241.694 83.1072 241.565 83.1072 241.42C83.1072 241.274 83.141 241.145 83.2087 241.034C83.2763 240.92 83.3687 240.832 83.4857 240.768C83.6027 240.704 83.7362 240.672 83.8861 240.672C84.0379 240.672 84.1722 240.704 84.2893 240.768C84.4081 240.832 84.5004 240.919 84.5663 241.031C84.6339 241.142 84.6677 241.272 84.6677 241.42C84.6677 241.565 84.6339 241.694 84.5663 241.807C84.5004 241.92 84.4081 242.01 84.2893 242.076C84.1722 242.14 84.0379 242.172 83.8861 242.172ZM83.8861 241.878C83.9702 241.878 84.0452 241.86 84.111 241.823C84.1768 241.787 84.228 241.734 84.2646 241.664C84.303 241.595 84.3222 241.514 84.3222 241.42C84.3222 241.325 84.303 241.244 84.2646 241.176C84.228 241.107 84.1768 241.054 84.111 241.017C84.0452 240.981 83.9711 240.962 83.8888 240.962C83.8047 240.962 83.7298 240.981 83.6639 241.017C83.6 241.054 83.5488 241.107 83.5104 241.176C83.472 241.244 83.4528 241.325 83.4528 241.42C83.4528 241.514 83.472 241.595 83.5104 241.664C83.5488 241.734 83.6 241.787 83.6639 241.823C83.7298 241.86 83.8038 241.878 83.8861 241.878ZM84.9956 242.153V240.688H85.3219V241.091L85.2835 240.973C85.3274 240.874 85.396 240.8 85.4892 240.748C85.5843 240.697 85.7022 240.672 85.843 240.672V240.998C85.8284 240.994 85.8147 240.992 85.8019 240.992C85.7891 240.991 85.7763 240.99 85.7635 240.99C85.6337 240.99 85.5304 241.028 85.4536 241.105C85.3768 241.18 85.3384 241.292 85.3384 241.442V242.153H84.9956ZM86.8088 242.172C86.6461 242.172 86.5035 242.14 86.381 242.076C86.2603 242.01 86.1661 241.92 86.0985 241.807C86.0327 241.694 85.9998 241.565 85.9998 241.42C85.9998 241.274 86.0318 241.145 86.0958 241.034C86.1616 240.92 86.2512 240.832 86.3645 240.768C86.4797 240.704 86.6104 240.672 86.7567 240.672C86.8993 240.672 87.0264 240.703 87.1379 240.765C87.2495 240.827 87.3372 240.915 87.4012 241.028C87.4652 241.141 87.4972 241.275 87.4972 241.428C87.4972 241.443 87.4963 241.46 87.4945 241.478C87.4945 241.496 87.4935 241.514 87.4917 241.53H86.2713V241.302H87.3107L87.1763 241.374C87.1782 241.29 87.1608 241.215 87.1242 241.151C87.0876 241.087 87.0374 241.037 86.9734 241.001C86.9112 240.964 86.839 240.946 86.7567 240.946C86.6726 240.946 86.5986 240.964 86.5346 241.001C86.4724 241.037 86.423 241.088 86.3865 241.154C86.3517 241.218 86.3344 241.294 86.3344 241.382V241.437C86.3344 241.524 86.3545 241.602 86.3947 241.67C86.4349 241.737 86.4916 241.79 86.5647 241.826C86.6379 241.863 86.722 241.881 86.817 241.881C86.8993 241.881 86.9734 241.868 87.0392 241.843C87.105 241.817 87.1635 241.777 87.2147 241.722L87.3985 241.933C87.3327 242.01 87.2495 242.069 87.1489 242.111C87.0502 242.152 86.9368 242.172 86.8088 242.172ZM88.4463 242.172C88.3055 242.172 88.1785 242.141 88.0651 242.078C87.9536 242.014 87.8658 241.927 87.8018 241.815C87.7378 241.704 87.7058 241.572 87.7058 241.42C87.7058 241.269 87.7378 241.137 87.8018 241.025C87.8658 240.914 87.9536 240.827 88.0651 240.765C88.1785 240.703 88.3055 240.672 88.4463 240.672C88.5688 240.672 88.6785 240.699 88.7754 240.754C88.8723 240.807 88.9491 240.888 89.0058 240.998C89.0625 241.108 89.0908 241.248 89.0908 241.42C89.0908 241.59 89.0634 241.731 89.0086 241.843C88.9537 241.952 88.8778 242.035 88.7809 242.089C88.684 242.144 88.5725 242.172 88.4463 242.172ZM88.4875 241.878C88.5697 241.878 88.6429 241.86 88.7069 241.823C88.7727 241.787 88.8248 241.734 88.8632 241.664C88.9034 241.595 88.9235 241.514 88.9235 241.42C88.9235 241.325 88.9034 241.244 88.8632 241.176C88.8248 241.107 88.7727 241.054 88.7069 241.017C88.6429 240.981 88.5697 240.962 88.4875 240.962C88.4052 240.962 88.3311 240.981 88.2653 241.017C88.2013 241.054 88.1492 241.107 88.109 241.176C88.0706 241.244 88.0514 241.325 88.0514 241.42C88.0514 241.514 88.0706 241.595 88.109 241.664C88.1492 241.734 88.2013 241.787 88.2653 241.823C88.3311 241.86 88.4052 241.878 88.4875 241.878ZM88.9318 242.153V241.807L88.9455 241.418L88.918 241.028V240.118H89.2581V242.153H88.9318ZM90.5002 242.153V240.233H91.2901C91.4601 240.233 91.6055 240.26 91.7261 240.315C91.8486 240.37 91.9428 240.448 92.0086 240.551C92.0744 240.653 92.1074 240.775 92.1074 240.916C92.1074 241.056 92.0744 241.178 92.0086 241.28C91.9428 241.381 91.8486 241.459 91.7261 241.514C91.6055 241.567 91.4601 241.593 91.2901 241.593H90.6977L90.8567 241.431V242.153H90.5002ZM91.7563 242.153L91.2709 241.456H91.6521L92.1403 242.153H91.7563ZM90.8567 241.47L90.6977 241.3H91.2736C91.4309 241.3 91.5488 241.266 91.6274 241.198C91.7079 241.13 91.7481 241.036 91.7481 240.916C91.7481 240.793 91.7079 240.699 91.6274 240.633C91.5488 240.567 91.4309 240.534 91.2736 240.534H90.6977L90.8567 240.359V241.47ZM93.1316 242.172C92.9816 242.172 92.8482 242.14 92.7311 242.076C92.6141 242.01 92.5218 241.92 92.4541 241.807C92.3865 241.694 92.3527 241.565 92.3527 241.42C92.3527 241.274 92.3865 241.145 92.4541 241.034C92.5218 240.92 92.6141 240.832 92.7311 240.768C92.8482 240.704 92.9816 240.672 93.1316 240.672C93.2833 240.672 93.4177 240.704 93.5347 240.768C93.6536 240.832 93.7459 240.919 93.8117 241.031C93.8794 241.142 93.9132 241.272 93.9132 241.42C93.9132 241.565 93.8794 241.694 93.8117 241.807C93.7459 241.92 93.6536 242.01 93.5347 242.076C93.4177 242.14 93.2833 242.172 93.1316 242.172ZM93.1316 241.878C93.2157 241.878 93.2906 241.86 93.3564 241.823C93.4223 241.787 93.4735 241.734 93.51 241.664C93.5484 241.595 93.5676 241.514 93.5676 241.42C93.5676 241.325 93.5484 241.244 93.51 241.176C93.4735 241.107 93.4223 241.054 93.3564 241.017C93.2906 240.981 93.2166 240.962 93.1343 240.962C93.0502 240.962 92.9752 240.981 92.9094 241.017C92.8454 241.054 92.7942 241.107 92.7558 241.176C92.7174 241.244 92.6982 241.325 92.6982 241.42C92.6982 241.514 92.7174 241.595 92.7558 241.664C92.7942 241.734 92.8454 241.787 92.9094 241.823C92.9752 241.86 93.0493 241.878 93.1316 241.878ZM94.8992 242.172C94.7493 242.172 94.6158 242.14 94.4988 242.076C94.3818 242.01 94.2895 241.92 94.2218 241.807C94.1542 241.694 94.1203 241.565 94.1203 241.42C94.1203 241.274 94.1542 241.145 94.2218 241.034C94.2895 240.92 94.3818 240.832 94.4988 240.768C94.6158 240.704 94.7493 240.672 94.8992 240.672C95.051 240.672 95.1854 240.704 95.3024 240.768C95.4212 240.832 95.5136 240.919 95.5794 241.031C95.647 241.142 95.6809 241.272 95.6809 241.42C95.6809 241.565 95.647 241.694 95.5794 241.807C95.5136 241.92 95.4212 242.01 95.3024 242.076C95.1854 242.14 95.051 242.172 94.8992 242.172ZM94.8992 241.878C94.9833 241.878 95.0583 241.86 95.1241 241.823C95.1899 241.787 95.2411 241.734 95.2777 241.664C95.3161 241.595 95.3353 241.514 95.3353 241.42C95.3353 241.325 95.3161 241.244 95.2777 241.176C95.2411 241.107 95.1899 241.054 95.1241 241.017C95.0583 240.981 94.9842 240.962 94.902 240.962C94.8179 240.962 94.7429 240.981 94.6771 241.017C94.6131 241.054 94.5619 241.107 94.5235 241.176C94.4851 241.244 94.4659 241.325 94.4659 241.42C94.4659 241.514 94.4851 241.595 94.5235 241.664C94.5619 241.734 94.6131 241.787 94.6771 241.823C94.7429 241.86 94.8169 241.878 94.8992 241.878ZM97.8572 240.672C97.9742 240.672 98.0775 240.694 98.1671 240.74C98.2585 240.786 98.3298 240.856 98.381 240.951C98.4322 241.045 98.4578 241.165 98.4578 241.313V242.153H98.115V241.357C98.115 241.227 98.0866 241.13 98.03 241.066C97.9733 241.002 97.8919 240.97 97.7859 240.97C97.7109 240.97 97.6442 240.987 97.5857 241.02C97.529 241.053 97.4842 241.101 97.4513 241.165C97.4202 241.229 97.4046 241.311 97.4046 241.409V242.153H97.0618V241.357C97.0618 241.227 97.0335 241.13 96.9768 241.066C96.9201 241.002 96.8388 240.97 96.7327 240.97C96.6578 240.97 96.591 240.987 96.5325 241.02C96.4758 241.053 96.431 241.101 96.3981 241.165C96.367 241.229 96.3515 241.311 96.3515 241.409V242.153H96.0087V240.688H96.335V241.077L96.2775 240.962C96.3268 240.867 96.3981 240.795 96.4914 240.746C96.5864 240.696 96.6943 240.672 96.815 240.672C96.9521 240.672 97.071 240.705 97.1715 240.773C97.2739 240.841 97.3416 240.943 97.3745 241.08L97.2401 241.034C97.2876 240.924 97.3663 240.836 97.476 240.77C97.5857 240.704 97.7127 240.672 97.8572 240.672Z" fill="#4F4F4F"/>
<rect x="158.322" y="168.541" width="10.8757" height="6.87568" rx="1.21892" fill="white"/>
<path d="M162.367 171.059H162.723V172.979H162.367V171.059ZM161.374 172.979H161.018V171.059H161.374V172.979ZM162.394 172.156H161.344V171.852H162.394V172.156ZM164.107 172.979V172.683L164.088 172.62V172.101C164.088 172.001 164.058 171.923 163.998 171.868C163.937 171.811 163.846 171.783 163.723 171.783C163.641 171.783 163.56 171.796 163.479 171.821C163.401 171.847 163.334 171.883 163.279 171.928L163.145 171.679C163.223 171.619 163.316 171.574 163.424 171.544C163.534 171.513 163.647 171.498 163.764 171.498C163.977 171.498 164.14 171.549 164.255 171.651C164.372 171.752 164.431 171.908 164.431 172.12V172.979H164.107ZM163.647 172.998C163.537 172.998 163.441 172.98 163.359 172.943C163.276 172.905 163.212 172.853 163.167 172.787C163.123 172.719 163.101 172.643 163.101 172.559C163.101 172.477 163.12 172.403 163.158 172.337C163.199 172.271 163.263 172.219 163.353 172.181C163.443 172.142 163.561 172.123 163.71 172.123H164.135V172.351H163.734C163.617 172.351 163.539 172.37 163.498 172.408C163.458 172.445 163.438 172.491 163.438 172.545C163.438 172.608 163.463 172.657 163.512 172.694C163.561 172.73 163.63 172.748 163.718 172.748C163.802 172.748 163.877 172.729 163.943 172.691C164.01 172.652 164.059 172.596 164.088 172.521L164.146 172.727C164.113 172.812 164.053 172.879 163.967 172.927C163.883 172.974 163.776 172.998 163.647 172.998ZM164.871 172.979V170.944H165.214V172.979H164.871ZM165.664 172.979V170.944H166.006V172.979H165.664Z" fill="#4F4F4F"/>
<rect x="56.543" y="89.9207" width="23.8757" height="6.87568" rx="1.21892" fill="white"/>
<path d="M59.2383 94.3585V92.4387H60.0775C60.2859 92.4387 60.4688 92.4789 60.626 92.5594C60.7833 92.6398 60.9058 92.7514 60.9935 92.894C61.0813 93.0366 61.1252 93.2048 61.1252 93.3986C61.1252 93.5906 61.0813 93.7588 60.9935 93.9033C60.9058 94.0459 60.7833 94.1574 60.626 94.2378C60.4688 94.3183 60.2859 94.3585 60.0775 94.3585H59.2383ZM59.5948 94.0568H60.061C60.2055 94.0568 60.3298 94.0294 60.434 93.9746C60.5401 93.9197 60.6214 93.8429 60.6781 93.7442C60.7366 93.6455 60.7659 93.5303 60.7659 93.3986C60.7659 93.2651 60.7366 93.15 60.6781 93.0531C60.6214 92.9543 60.5401 92.8775 60.434 92.8227C60.3298 92.7678 60.2055 92.7404 60.061 92.7404H59.5948V94.0568ZM61.4712 94.3585V92.894H61.814V94.3585H61.4712ZM61.644 92.6526C61.58 92.6526 61.527 92.6325 61.4849 92.5923C61.4447 92.5521 61.4246 92.5036 61.4246 92.4469C61.4246 92.3884 61.4447 92.34 61.4849 92.3016C61.527 92.2614 61.58 92.2413 61.644 92.2413C61.708 92.2413 61.7601 92.2605 61.8003 92.2989C61.8424 92.3354 61.8634 92.382 61.8634 92.4387C61.8634 92.4991 61.8433 92.5503 61.803 92.5923C61.7628 92.6325 61.7098 92.6526 61.644 92.6526ZM63.095 92.8775C63.212 92.8775 63.3162 92.9004 63.4076 92.9461C63.5009 92.9918 63.574 93.0622 63.627 93.1573C63.68 93.2505 63.7066 93.3712 63.7066 93.5193V94.3585H63.3637V93.5632C63.3637 93.4334 63.3327 93.3365 63.2705 93.2725C63.2102 93.2085 63.1251 93.1765 63.0154 93.1765C62.935 93.1765 62.8637 93.1929 62.8015 93.2258C62.7393 93.2588 62.6909 93.3081 62.6562 93.3739C62.6232 93.4379 62.6068 93.5193 62.6068 93.618V94.3585H62.264V92.894H62.5903V93.2889L62.5327 93.1682C62.5839 93.075 62.658 93.0037 62.7549 92.9543C62.8536 92.9031 62.967 92.8775 63.095 92.8775ZM64.1414 94.3585V92.894H64.4843V94.3585H64.1414ZM64.3142 92.6526C64.2502 92.6526 64.1972 92.6325 64.1552 92.5923C64.1149 92.5521 64.0948 92.5036 64.0948 92.4469C64.0948 92.3884 64.1149 92.34 64.1552 92.3016C64.1972 92.2614 64.2502 92.2413 64.3142 92.2413C64.3782 92.2413 64.4303 92.2605 64.4706 92.2989C64.5126 92.3354 64.5336 92.382 64.5336 92.4387C64.5336 92.4991 64.5135 92.5503 64.4733 92.5923C64.4331 92.6325 64.3801 92.6526 64.3142 92.6526ZM65.7652 92.8775C65.8822 92.8775 65.9865 92.9004 66.0779 92.9461C66.1711 92.9918 66.2443 93.0622 66.2973 93.1573C66.3503 93.2505 66.3768 93.3712 66.3768 93.5193V94.3585H66.034V93.5632C66.034 93.4334 66.0029 93.3365 65.9407 93.2725C65.8804 93.2085 65.7954 93.1765 65.6857 93.1765C65.6052 93.1765 65.5339 93.1929 65.4718 93.2258C65.4096 93.2588 65.3611 93.3081 65.3264 93.3739C65.2935 93.4379 65.277 93.5193 65.277 93.618V94.3585H64.9342V92.894H65.2606V93.2889L65.203 93.1682C65.2542 93.075 65.3282 93.0037 65.4251 92.9543C65.5239 92.9031 65.6372 92.8775 65.7652 92.8775ZM67.4781 94.9098C67.3428 94.9098 67.2102 94.8915 67.0804 94.8549C66.9524 94.8202 66.8473 94.769 66.765 94.7013L66.9186 94.4435C66.9826 94.4966 67.063 94.5386 67.1599 94.5697C67.2587 94.6026 67.3583 94.6191 67.4589 94.6191C67.6198 94.6191 67.7377 94.5816 67.8127 94.5066C67.8876 94.4335 67.9251 94.3229 67.9251 94.1748V93.9142L67.9525 93.5824L67.9416 93.2505V92.894H68.2679V94.1364C68.2679 94.4015 68.2003 94.5962 68.065 94.7205C67.9297 94.8467 67.7341 94.9098 67.4781 94.9098ZM67.4342 94.2927C67.2952 94.2927 67.1691 94.2634 67.0557 94.2049C66.9442 94.1446 66.8555 94.0614 66.7897 93.9554C66.7257 93.8493 66.6937 93.725 66.6937 93.5824C66.6937 93.4416 66.7257 93.3182 66.7897 93.2121C66.8555 93.1061 66.9442 93.0238 67.0557 92.9653C67.1691 92.9068 67.2952 92.8775 67.4342 92.8775C67.5585 92.8775 67.6701 92.9022 67.7688 92.9516C67.8675 93.0009 67.9461 93.0777 68.0047 93.182C68.065 93.2862 68.0952 93.4196 68.0952 93.5824C68.0952 93.7451 68.065 93.8795 68.0047 93.9855C67.9461 94.0897 67.8675 94.1675 67.7688 94.2186C67.6701 94.268 67.5585 94.2927 67.4342 94.2927ZM67.4863 94.002C67.5722 94.002 67.649 93.9846 67.7167 93.9499C67.7843 93.9133 67.8364 93.8639 67.873 93.8018C67.9114 93.7378 67.9306 93.6647 67.9306 93.5824C67.9306 93.5001 67.9114 93.4279 67.873 93.3657C67.8364 93.3017 67.7843 93.2533 67.7167 93.2204C67.649 93.1856 67.5722 93.1682 67.4863 93.1682C67.4004 93.1682 67.3227 93.1856 67.2532 93.2204C67.1855 93.2533 67.1325 93.3017 67.0941 93.3657C67.0576 93.4279 67.0393 93.5001 67.0393 93.5824C67.0393 93.6647 67.0576 93.7378 67.0941 93.8018C67.1325 93.8639 67.1855 93.9133 67.2532 93.9499C67.3227 93.9846 67.4004 94.002 67.4863 94.002ZM69.5095 94.3585V92.4387H70.2994C70.4694 92.4387 70.6148 92.4661 70.7354 92.521C70.8579 92.5759 70.9521 92.6545 71.0179 92.7569C71.0837 92.8592 71.1167 92.9808 71.1167 93.1216C71.1167 93.2624 71.0837 93.384 71.0179 93.4864C70.9521 93.5869 70.8579 93.6647 70.7354 93.7195C70.6148 93.7725 70.4694 93.799 70.2994 93.799H69.707L69.866 93.6372V94.3585H69.5095ZM70.7656 94.3585L70.2802 93.6619H70.6614L71.1496 94.3585H70.7656ZM69.866 93.6756L69.707 93.5056H70.2829C70.4402 93.5056 70.5581 93.4718 70.6367 93.4041C70.7172 93.3365 70.7574 93.2423 70.7574 93.1216C70.7574 92.9991 70.7172 92.905 70.6367 92.8391C70.5581 92.7733 70.4402 92.7404 70.2829 92.7404H69.707L69.866 92.5649V93.6756ZM72.1409 94.3777C71.9909 94.3777 71.8575 94.3457 71.7404 94.2817C71.6234 94.2159 71.5311 94.1263 71.4634 94.013C71.3958 93.8996 71.362 93.7707 71.362 93.6263C71.362 93.48 71.3958 93.3511 71.4634 93.2396C71.5311 93.1262 71.6234 93.0375 71.7404 92.9735C71.8575 92.9095 71.9909 92.8775 72.1409 92.8775C72.2926 92.8775 72.427 92.9095 72.544 92.9735C72.6629 93.0375 72.7552 93.1253 72.821 93.2368C72.8887 93.3483 72.9225 93.4782 72.9225 93.6263C72.9225 93.7707 72.8887 93.8996 72.821 94.013C72.7552 94.1263 72.6629 94.2159 72.544 94.2817C72.427 94.3457 72.2926 94.3777 72.1409 94.3777ZM72.1409 94.0843C72.225 94.0843 72.2999 94.066 72.3657 94.0294C72.4316 93.9928 72.4828 93.9398 72.5193 93.8703C72.5577 93.8009 72.5769 93.7195 72.5769 93.6263C72.5769 93.5312 72.5577 93.4498 72.5193 93.3822C72.4828 93.3127 72.4316 93.2597 72.3657 93.2231C72.2999 93.1865 72.2259 93.1682 72.1436 93.1682C72.0595 93.1682 71.9845 93.1865 71.9187 93.2231C71.8547 93.2597 71.8035 93.3127 71.7651 93.3822C71.7267 93.4498 71.7075 93.5312 71.7075 93.6263C71.7075 93.7195 71.7267 93.8009 71.7651 93.8703C71.8035 93.9398 71.8547 93.9928 71.9187 94.0294C71.9845 94.066 72.0586 94.0843 72.1409 94.0843ZM73.9085 94.3777C73.7586 94.3777 73.6251 94.3457 73.5081 94.2817C73.3911 94.2159 73.2988 94.1263 73.2311 94.013C73.1635 93.8996 73.1296 93.7707 73.1296 93.6263C73.1296 93.48 73.1635 93.3511 73.2311 93.2396C73.2988 93.1262 73.3911 93.0375 73.5081 92.9735C73.6251 92.9095 73.7586 92.8775 73.9085 92.8775C74.0603 92.8775 74.1947 92.9095 74.3117 92.9735C74.4305 93.0375 74.5229 93.1253 74.5887 93.2368C74.6563 93.3483 74.6902 93.4782 74.6902 93.6263C74.6902 93.7707 74.6563 93.8996 74.5887 94.013C74.5229 94.1263 74.4305 94.2159 74.3117 94.2817C74.1947 94.3457 74.0603 94.3777 73.9085 94.3777ZM73.9085 94.0843C73.9926 94.0843 74.0676 94.066 74.1334 94.0294C74.1992 93.9928 74.2504 93.9398 74.287 93.8703C74.3254 93.8009 74.3446 93.7195 74.3446 93.6263C74.3446 93.5312 74.3254 93.4498 74.287 93.3822C74.2504 93.3127 74.1992 93.2597 74.1334 93.2231C74.0676 93.1865 73.9935 93.1682 73.9113 93.1682C73.8272 93.1682 73.7522 93.1865 73.6864 93.2231C73.6224 93.2597 73.5712 93.3127 73.5328 93.3822C73.4944 93.4498 73.4752 93.5312 73.4752 93.6263C73.4752 93.7195 73.4944 93.8009 73.5328 93.8703C73.5712 93.9398 73.6224 93.9928 73.6864 94.0294C73.7522 94.066 73.8263 94.0843 73.9085 94.0843ZM76.8665 92.8775C76.9835 92.8775 77.0868 92.9004 77.1764 92.9461C77.2678 92.9918 77.3391 93.0622 77.3903 93.1573C77.4415 93.2505 77.4671 93.3712 77.4671 93.5193V94.3585H77.1243V93.5632C77.1243 93.4334 77.0959 93.3365 77.0393 93.2725C76.9826 93.2085 76.9012 93.1765 76.7952 93.1765C76.7202 93.1765 76.6535 93.1929 76.595 93.2258C76.5383 93.2588 76.4935 93.3072 76.4606 93.3712C76.4295 93.4352 76.414 93.5166 76.414 93.6153V94.3585H76.0711V93.5632C76.0711 93.4334 76.0428 93.3365 75.9861 93.2725C75.9294 93.2085 75.8481 93.1765 75.742 93.1765C75.6671 93.1765 75.6003 93.1929 75.5418 93.2258C75.4851 93.2588 75.4403 93.3072 75.4074 93.3712C75.3763 93.4352 75.3608 93.5166 75.3608 93.6153V94.3585H75.018V92.894H75.3443V93.2834L75.2868 93.1682C75.3361 93.0732 75.4074 93.0009 75.5007 92.9516C75.5958 92.9022 75.7036 92.8775 75.8243 92.8775C75.9614 92.8775 76.0803 92.9114 76.1808 92.979C76.2832 93.0467 76.3509 93.149 76.3838 93.2862L76.2494 93.2396C76.2969 93.1298 76.3756 93.0421 76.4853 92.9763C76.595 92.9104 76.722 92.8775 76.8665 92.8775Z" fill="#4F4F4F"/>
<path d="M43.7441 141.268V70.5702C43.7441 70.2336 44.017 69.9608 44.3536 69.9608H52.2766M43.7441 179.054V161.989H100.881V209.375M43.7441 209.375V220.497M58.5235 260.112H44.3536C44.017 260.112 43.7441 259.839 43.7441 259.503V220.497M88.5394 260.112H131.963M142.934 260.112H131.963M173.254 260.112H197.785C198.122 260.112 198.395 259.839 198.395 259.503V236.953M198.395 206.48V185.453M198.395 154.371V132.735M198.395 102.414V70.5702C198.395 70.2336 198.122 69.9608 197.785 69.9608H92.0438M54.105 117.651H91.4344C91.771 117.651 92.0438 117.378 92.0438 117.042V69.9608M92.0438 69.9608H83.0543M102.557 117.803H131.963M131.963 117.803V69.9608M131.963 117.803V158.637M43.7441 220.497H100.881M111.089 220.497H131.963V260.112" stroke="#111111" stroke-width="1.82838"/>
<path d="M53.9526 69.8084H80.6165M144.914 260.265H171.578M60.5043 260.265H87.1681M43.7441 207.089L43.7441 180.425M198.547 235.734V209.07M198.547 183.32V156.656M198.547 130.907V104.243" stroke="#BDBDBD" stroke-width="4.26622"/>
<g clip-path="url(#clip2_1095_49073)">
<g opacity="0.5">
<path d="M42.4766 160.96L42.4766 141.992" stroke="#111111" stroke-width="1.23141" stroke-miterlimit="10"/>
<path d="M45.9941 141.992L45.9941 160.96" stroke="#111111" stroke-width="1.23141" stroke-miterlimit="10"/>
<path d="M45.9941 158.661C53.9112 158.661 60.3275 152.207 60.3275 144.246L45.9941 144.246L45.9941 158.661Z" stroke="#111111" stroke-width="0.820918" stroke-miterlimit="10" stroke-linecap="square"/>
<path d="M42.4785 143.362L42.4785 159.546L45.9941 159.546L45.9941 143.362L42.4785 143.362Z" stroke="#111111" stroke-width="0.820918" stroke-miterlimit="10" stroke-linecap="square"/>
<path d="M45.9941 159.546L42.4785 159.546L42.4785 143.362L45.9941 143.362L45.9941 159.546Z" fill="white"/>
</g>
</g>
<g clip-path="url(#clip3_1095_49073)">
<g opacity="0.5">
<path d="M43.0156 116.623L55.7514 116.623" stroke="#111111" stroke-width="0.985131" stroke-miterlimit="10"/>
<path d="M55.7514 119.022L43.0156 119.022" stroke="#111111" stroke-width="0.985131" stroke-miterlimit="10"/>
<path d="M44.5573 119.021C44.5573 124.419 48.8911 128.794 54.2363 128.794L54.2363 119.021L44.5573 119.021Z" stroke="#111111" stroke-width="0.656735" stroke-miterlimit="10" stroke-linecap="square"/>
<path d="M54.8301 116.624L43.9637 116.624L43.9637 119.021L54.8301 119.021L54.8301 116.624Z" stroke="#111111" stroke-width="0.656735" stroke-miterlimit="10" stroke-linecap="square"/>
<path d="M43.9648 119.021L43.9648 116.624L54.8312 116.624L54.8312 119.021L43.9648 119.021Z" fill="white"/>
</g>
</g>
<g clip-path="url(#clip4_1095_49073)">
<g opacity="0.5">
<path d="M91.4668 116.623L104.203 116.623" stroke="#111111" stroke-width="0.985131" stroke-miterlimit="10"/>
<path d="M104.203 119.022L91.4668 119.022" stroke="#111111" stroke-width="0.985131" stroke-miterlimit="10"/>
<path d="M93.0124 119.021C93.0124 124.419 97.3462 128.794 102.691 128.794L102.691 119.021L93.0124 119.021Z" stroke="#111111" stroke-width="0.656735" stroke-miterlimit="10" stroke-linecap="square"/>
<path d="M103.285 116.624L92.4188 116.624L92.4188 119.021L103.285 119.021L103.285 116.624Z" stroke="#111111" stroke-width="0.656735" stroke-miterlimit="10" stroke-linecap="square"/>
<path d="M92.416 119.021L92.416 116.624L103.282 116.624L103.282 119.021L92.416 119.021Z" fill="white"/>
</g>
</g>
<g clip-path="url(#clip5_1095_49073)">
<g opacity="0.5">
<path d="M98.7773 219.317L111.513 219.317" stroke="#111111" stroke-width="0.985131" stroke-miterlimit="10"/>
<path d="M111.513 221.716L98.7773 221.716" stroke="#111111" stroke-width="0.985131" stroke-miterlimit="10"/>
<path d="M100.323 221.715C100.323 227.113 104.657 231.488 110.002 231.488L110.002 221.715L100.323 221.715Z" stroke="#111111" stroke-width="0.656735" stroke-miterlimit="10" stroke-linecap="square"/>
<path d="M110.596 219.318L99.7294 219.318L99.7294 221.715L110.596 221.715L110.596 219.318Z" stroke="#111111" stroke-width="0.656735" stroke-miterlimit="10" stroke-linecap="square"/>
<path d="M99.7266 221.715L99.7266 219.318L110.593 219.318L110.593 221.715L99.7266 221.715Z" fill="white"/>
</g>
</g>
<g clip-path="url(#clip6_1095_49073)">
<g opacity="0.5">
<path d="M99.0938 220.466L99.0937 207.73" stroke="#111111" stroke-width="0.985131" stroke-miterlimit="10"/>
<path d="M101.492 207.73L101.492 220.466" stroke="#111111" stroke-width="0.985131" stroke-miterlimit="10"/>
<path d="M101.49 218.923C106.888 218.923 111.263 214.589 111.263 209.243L101.49 209.243L101.49 218.923Z" stroke="#111111" stroke-width="0.656735" stroke-miterlimit="10" stroke-linecap="square"/>
<path d="M99.0938 208.65L99.0938 219.516L101.491 219.516L101.491 208.65L99.0938 208.65Z" stroke="#111111" stroke-width="0.656735" stroke-miterlimit="10" stroke-linecap="square"/>
<path d="M101.491 219.516L99.0938 219.516L99.0937 208.65L101.491 208.65L101.491 219.516Z" fill="white"/>
</g>
</g>
<path d="M37.0394 160.618L35.211 160.618C34.8744 160.618 34.6016 160.345 34.6016 160.008L34.6016 69.8084C34.6016 69.4718 34.8744 69.199 35.211 69.199L37.0394 69.199" stroke="#1C4C82" stroke-width="0.60946"/>
<rect width="7.87568" height="13.8757" transform="translate(31.0996 107.9)" fill="#EFEFEF"/>
<path d="M36.0203 118.509C36.0268 118.515 36.0333 118.517 36.0398 118.513C36.0463 118.51 36.0495 118.504 36.0495 118.494L36.0495 117.426C36.0495 117.41 36.056 117.397 36.069 117.387C36.0788 117.374 36.0918 117.368 36.108 117.368L36.4786 117.368C36.4949 117.368 36.5095 117.374 36.5225 117.387C36.5322 117.397 36.5371 117.41 36.5371 117.426L36.5371 119.128C36.5371 119.144 36.5322 119.159 36.5225 119.172C36.5095 119.181 36.4949 119.186 36.4786 119.186L36.0885 119.186C36.0593 119.186 36.0349 119.178 36.0154 119.162L35.757 118.972C35.588 118.845 35.4157 118.722 35.2402 118.601C35.0647 118.478 34.907 118.374 34.7672 118.289C34.4552 118.101 34.1968 118.006 33.992 118.006C33.862 118.006 33.7596 118.036 33.6848 118.094C33.6101 118.149 33.5727 118.224 33.5727 118.318C33.5727 118.413 33.6101 118.487 33.6848 118.543C33.7563 118.598 33.8522 118.624 33.9725 118.621L34.1627 118.621C34.1789 118.621 34.1935 118.627 34.2065 118.64C34.2163 118.65 34.2212 118.663 34.2212 118.679L34.2212 119.138C34.2212 119.154 34.2163 119.168 34.2065 119.181C34.1935 119.191 34.1789 119.196 34.1627 119.196L33.953 119.196C33.693 119.183 33.4833 119.095 33.324 118.933C33.1648 118.767 33.0851 118.554 33.0851 118.294C33.0851 118.037 33.1696 117.831 33.3387 117.675C33.5044 117.516 33.7238 117.436 33.9969 117.436C34.1594 117.436 34.3203 117.464 34.4796 117.519C34.6388 117.574 34.8095 117.662 34.9915 117.782C35.1215 117.863 35.2646 117.961 35.4206 118.075C35.5766 118.185 35.679 118.258 35.7277 118.294C35.8578 118.392 35.9553 118.463 36.0203 118.509ZM35.1378 115.165C35.1378 115.149 35.1443 115.136 35.1573 115.126C35.167 115.113 35.18 115.106 35.1963 115.106L35.5912 115.106C35.6075 115.106 35.6221 115.113 35.6351 115.126C35.6449 115.136 35.6497 115.149 35.6497 115.165L35.6497 115.311C35.6497 115.327 35.6579 115.335 35.6741 115.335L36.4786 115.335C36.4949 115.335 36.5095 115.342 36.5225 115.355C36.5322 115.365 36.5371 115.378 36.5371 115.394L36.5371 115.843C36.5371 115.859 36.5322 115.873 36.5225 115.886C36.5095 115.896 36.4949 115.901 36.4786 115.901L35.6741 115.901C35.6579 115.901 35.6497 115.909 35.6497 115.925L35.6497 117.125C35.6497 117.141 35.6449 117.156 35.6351 117.169C35.6221 117.178 35.6075 117.183 35.5912 117.183L35.2743 117.183C35.2451 117.183 35.2207 117.18 35.2012 117.174L33.1729 116.496C33.1404 116.486 33.1241 116.465 33.1241 116.433L33.1241 115.945C33.1241 115.925 33.1306 115.911 33.1436 115.901C33.1534 115.891 33.1696 115.89 33.1924 115.896L35.1085 116.52C35.128 116.524 35.1378 116.517 35.1378 116.501L35.1378 115.925C35.1378 115.909 35.1297 115.901 35.1134 115.901L34.5283 115.901C34.5121 115.901 34.4991 115.896 34.4893 115.886C34.4763 115.873 34.4698 115.859 34.4698 115.843L34.4698 115.394C34.4698 115.378 34.4763 115.365 34.4893 115.355C34.4991 115.342 34.5121 115.335 34.5283 115.335L35.1134 115.335C35.1297 115.335 35.1378 115.327 35.1378 115.311L35.1378 115.165ZM33.1241 114.292C33.1241 114.273 33.1306 114.26 33.1436 114.253C33.1534 114.243 33.1696 114.242 33.1924 114.248L34.1383 114.565C34.1708 114.575 34.187 114.596 34.187 114.629L34.187 114.965C34.187 115.007 34.1659 115.024 34.1236 115.014L33.1778 114.809C33.142 114.802 33.1241 114.781 33.1241 114.746L33.1241 114.292ZM36.5907 113.132C36.5907 113.405 36.5046 113.624 36.3323 113.79C36.1568 113.956 35.9276 114.038 35.6449 114.038L34.0164 114.038C33.7336 114.038 33.5061 113.956 33.3338 113.79C33.1583 113.624 33.0705 113.405 33.0705 113.132C33.0705 112.855 33.1583 112.634 33.3338 112.468C33.5061 112.299 33.7336 112.215 34.0164 112.215L35.6449 112.215C35.9276 112.215 36.1568 112.299 36.3323 112.468C36.5046 112.634 36.5907 112.855 36.5907 113.132ZM36.0983 113.132C36.0983 113.024 36.0609 112.94 35.9862 112.878C35.9081 112.813 35.8058 112.781 35.679 112.781L33.9823 112.781C33.8555 112.781 33.7547 112.813 33.68 112.878C33.602 112.94 33.5629 113.024 33.5629 113.132C33.5629 113.236 33.602 113.318 33.68 113.38C33.7547 113.442 33.8555 113.473 33.9823 113.473L35.679 113.473C35.8058 113.473 35.9081 113.442 35.9862 113.38C36.0609 113.318 36.0983 113.236 36.0983 113.132ZM33.1241 111.292C33.1241 111.273 33.1306 111.26 33.1436 111.253C33.1534 111.244 33.1696 111.242 33.1924 111.249L34.1383 111.566C34.1708 111.575 34.187 111.596 34.187 111.629L34.187 111.965C34.187 112.008 34.1659 112.024 34.1236 112.014L33.1778 111.809C33.142 111.803 33.1241 111.782 33.1241 111.746L33.1241 111.292ZM33.1241 110.488C33.1241 110.468 33.1306 110.455 33.1436 110.449C33.1534 110.439 33.1696 110.437 33.1924 110.444L34.1383 110.761C34.1708 110.771 34.187 110.792 34.187 110.824L34.187 111.161C34.187 111.203 34.1659 111.219 34.1236 111.209L33.1778 111.005C33.142 110.998 33.1241 110.977 33.1241 110.941L33.1241 110.488Z" fill="#1C4C82"/>
<path d="M37.0394 163.056H35.211C34.8744 163.056 34.6016 163.329 34.6016 163.665L34.6016 259.351C34.6016 259.687 34.8744 259.96 35.211 259.96L37.0394 259.96" stroke="#1C4C82" stroke-width="0.60946"/>
<rect width="7.87568" height="13.8757" transform="translate(31.0996 207.242)" fill="#EFEFEF"/>
<path d="M36.0203 217.851C36.0268 217.857 36.0333 217.859 36.0398 217.856C36.0463 217.852 36.0495 217.846 36.0495 217.836L36.0495 216.768C36.0495 216.752 36.056 216.739 36.069 216.729C36.0788 216.716 36.0918 216.71 36.108 216.71L36.4786 216.71C36.4949 216.71 36.5095 216.716 36.5225 216.729C36.5322 216.739 36.5371 216.752 36.5371 216.768L36.5371 218.47C36.5371 218.486 36.5322 218.501 36.5225 218.514C36.5095 218.524 36.4949 218.528 36.4786 218.528L36.0885 218.528C36.0593 218.528 36.0349 218.52 36.0154 218.504L35.757 218.314C35.588 218.187 35.4157 218.064 35.2402 217.943C35.0647 217.82 34.907 217.716 34.7672 217.631C34.4552 217.443 34.1968 217.349 33.992 217.349C33.862 217.349 33.7596 217.378 33.6848 217.436C33.6101 217.492 33.5727 217.566 33.5727 217.661C33.5727 217.755 33.6101 217.83 33.6848 217.885C33.7563 217.94 33.8522 217.966 33.9725 217.963L34.1627 217.963C34.1789 217.963 34.1935 217.969 34.2065 217.982C34.2163 217.992 34.2212 218.005 34.2212 218.021L34.2212 218.48C34.2212 218.496 34.2163 218.511 34.2065 218.524C34.1935 218.533 34.1789 218.538 34.1627 218.538L33.953 218.538C33.693 218.525 33.4833 218.437 33.324 218.275C33.1648 218.109 33.0851 217.896 33.0851 217.636C33.0851 217.379 33.1696 217.173 33.3387 217.017C33.5044 216.858 33.7238 216.778 33.9969 216.778C34.1594 216.778 34.3203 216.806 34.4796 216.861C34.6388 216.916 34.8095 217.004 34.9915 217.124C35.1215 217.206 35.2646 217.303 35.4206 217.417C35.5766 217.527 35.679 217.6 35.7277 217.636C35.8578 217.734 35.9553 217.805 36.0203 217.851ZM35.1378 214.507C35.1378 214.491 35.1443 214.478 35.1573 214.468C35.167 214.455 35.18 214.448 35.1963 214.448L35.5912 214.448C35.6075 214.448 35.6221 214.455 35.6351 214.468C35.6449 214.478 35.6497 214.491 35.6497 214.507L35.6497 214.653C35.6497 214.67 35.6579 214.678 35.6741 214.678L36.4786 214.678C36.4949 214.678 36.5095 214.684 36.5225 214.697C36.5322 214.707 36.5371 214.72 36.5371 214.736L36.5371 215.185C36.5371 215.201 36.5322 215.216 36.5225 215.229C36.5095 215.238 36.4949 215.243 36.4786 215.243L35.6741 215.243C35.6579 215.243 35.6497 215.251 35.6497 215.268L35.6497 216.467C35.6497 216.483 35.6449 216.498 35.6351 216.511C35.6221 216.521 35.6075 216.526 35.5912 216.526L35.2743 216.526C35.2451 216.526 35.2207 216.522 35.2012 216.516L33.1729 215.838C33.1404 215.828 33.1241 215.807 33.1241 215.775L33.1241 215.287C33.1241 215.268 33.1306 215.253 33.1436 215.243C33.1534 215.233 33.1696 215.232 33.1924 215.238L35.1085 215.862C35.128 215.866 35.1378 215.859 35.1378 215.843L35.1378 215.268C35.1378 215.251 35.1297 215.243 35.1134 215.243L34.5283 215.243C34.5121 215.243 34.4991 215.238 34.4893 215.229C34.4763 215.216 34.4698 215.201 34.4698 215.185L34.4698 214.736C34.4698 214.72 34.4763 214.707 34.4893 214.697C34.4991 214.684 34.5121 214.678 34.5283 214.678L35.1134 214.678C35.1297 214.678 35.1378 214.67 35.1378 214.653L35.1378 214.507ZM33.1241 213.634C33.1241 213.615 33.1306 213.602 33.1436 213.595C33.1534 213.586 33.1696 213.584 33.1924 213.59L34.1383 213.907C34.1708 213.917 34.187 213.938 34.187 213.971L34.187 214.307C34.187 214.349 34.1659 214.366 34.1236 214.356L33.1778 214.151C33.142 214.145 33.1241 214.124 33.1241 214.088L33.1241 213.634ZM36.5907 212.474C36.5907 212.747 36.5046 212.966 36.3323 213.132C36.1568 213.298 35.9276 213.381 35.6449 213.381L34.0164 213.381C33.7336 213.381 33.5061 213.298 33.3338 213.132C33.1583 212.966 33.0705 212.747 33.0705 212.474C33.0705 212.197 33.1583 211.976 33.3338 211.811C33.5061 211.642 33.7336 211.557 34.0164 211.557L35.6449 211.557C35.9276 211.557 36.1568 211.642 36.3323 211.811C36.5046 211.976 36.5907 212.197 36.5907 212.474ZM36.0983 212.474C36.0983 212.366 36.0609 212.282 35.9862 212.22C35.9081 212.155 35.8058 212.123 35.679 212.123L33.9823 212.123C33.8555 212.123 33.7547 212.155 33.68 212.22C33.602 212.282 33.5629 212.366 33.5629 212.474C33.5629 212.578 33.602 212.661 33.68 212.722C33.7547 212.784 33.8555 212.815 33.9823 212.815L35.679 212.815C35.8058 212.815 35.9081 212.784 35.9862 212.722C36.0609 212.661 36.0983 212.578 36.0983 212.474ZM33.1241 210.635C33.1241 210.615 33.1306 210.602 33.1436 210.596C33.1534 210.586 33.1696 210.584 33.1924 210.591L34.1383 210.908C34.1708 210.917 34.187 210.939 34.187 210.971L34.187 211.307C34.187 211.35 34.1659 211.366 34.1236 211.356L33.1778 211.151C33.142 211.145 33.1241 211.124 33.1241 211.088L33.1241 210.635ZM33.1241 209.83C33.1241 209.81 33.1306 209.797 33.1436 209.791C33.1534 209.781 33.1696 209.78 33.1924 209.786L34.1383 210.103C34.1708 210.113 34.187 210.134 34.187 210.166L34.187 210.503C34.187 210.545 34.1659 210.561 34.1236 210.552L33.1778 210.347C33.142 210.34 33.1241 210.319 33.1241 210.283L33.1241 209.83Z" fill="#1C4C82"/>
</g>
<path d="M-169 311.531C-169 310.908 -168.495 310.402 -167.871 310.402H398.871C399.495 310.402 400 310.908 400 311.531V313.789H-169V311.531Z" fill="#A3ACB1"/>
<path d="M-169 311.531C-169 310.908 -168.495 310.402 -167.871 310.402H398.871C399.495 310.402 400 310.908 400 311.531V313.789H-169V311.531Z" fill="url(#paint0_linear_1095_49073)"/>
<path d="M-169 313.789H400L388.51 316.106C373.815 319.07 358.862 320.563 343.871 320.563H-113.732C-130.206 320.563 -146.631 318.76 -162.714 315.186L-169 313.789Z" fill="#647279"/>
<path d="M-169 313.789H400L388.51 316.106C373.815 319.07 358.862 320.563 343.871 320.563H-113.732C-130.206 320.563 -146.631 318.76 -162.714 315.186L-169 313.789Z" fill="url(#paint1_linear_1095_49073)"/>
<path fill-rule="evenodd" clip-rule="evenodd" d="M73.7461 310.402C74.0366 312.294 72.6278 313.789 77.1145 313.789H154.449C158.935 313.789 157.527 312.294 157.817 310.402H73.7461Z" fill="#96A1A8"/>
<path fill-rule="evenodd" clip-rule="evenodd" d="M73.7461 310.402C74.0366 312.294 72.6278 313.789 77.1145 313.789H154.449C158.935 313.789 157.527 312.294 157.817 310.402H73.7461Z" fill="url(#paint2_linear_1095_49073)"/>
<defs>
<filter id="filter0_f_1095_49073" x="-164.484" y="296.29" width="560.532" height="55.3194" filterUnits="userSpaceOnUse" color-interpolation-filters="sRGB">
<feFlood flood-opacity="0" result="BackgroundImageFix"/>
<feBlend mode="normal" in="SourceGraphic" in2="BackgroundImageFix" result="shape"/>
<feGaussianBlur stdDeviation="12.4186" result="effect1_foregroundBlur_1095_49073"/>
</filter>
<linearGradient id="paint0_linear_1095_49073" x1="-169" y1="312.096" x2="400" y2="312.096" gradientUnits="userSpaceOnUse">
<stop stop-color="#0D1012"/>
<stop offset="0.0295345" stop-color="#CAD4DB"/>
<stop offset="0.0625" stop-color="#242729"/>
<stop offset="0.133609" stop-color="#A3ACB1"/>
<stop offset="0.865967" stop-color="#A3ACB1"/>
<stop offset="0.941937" stop-color="#242729"/>
<stop offset="0.971275" stop-color="#CAD4DB"/>
<stop offset="0.996436" stop-color="#0D1012"/>
</linearGradient>
<linearGradient id="paint1_linear_1095_49073" x1="115.5" y1="313.789" x2="115.5" y2="320.563" gradientUnits="userSpaceOnUse">
<stop stop-color="#7A7F83"/>
<stop offset="1" stop-color="#0B0B0E"/>
</linearGradient>
<linearGradient id="paint2_linear_1095_49073" x1="77.9613" y1="312.459" x2="155.296" y2="312.459" gradientUnits="userSpaceOnUse">
<stop stop-color="#3C3C3C"/>
<stop offset="0.317518" stop-color="#3C3C3C" stop-opacity="0"/>
<stop offset="0.660584" stop-color="#3C3C3C" stop-opacity="0"/>
<stop offset="1" stop-color="#444444"/>
</linearGradient>
<clipPath id="clip0_1095_49073">
<rect width="429.802" height="269.875" fill="white" transform="translate(-99.0332 18.4531)"/>
</clipPath>
<clipPath id="clip1_1095_49073">
<rect width="6.15101" height="6.15101" fill="white" transform="translate(148.869 30.7553)"/>
</clipPath>
<clipPath id="clip2_1095_49073">
<rect width="21.3311" height="20.1122" fill="white" transform="matrix(4.37114e-08 -1 -1 -4.37114e-08 61.418 162.141)"/>
</clipPath>
<clipPath id="clip3_1095_49073">
<rect width="14.3223" height="13.7128" fill="white" transform="matrix(1 8.74228e-08 8.74228e-08 -1 42.2207 129.535)"/>
</clipPath>
<clipPath id="clip4_1095_49073">
<rect width="14.3223" height="13.7128" fill="white" transform="matrix(1 8.74228e-08 8.74228e-08 -1 90.6719 129.535)"/>
</clipPath>
<clipPath id="clip5_1095_49073">
<rect width="14.3223" height="13.7128" fill="white" transform="matrix(1 8.74228e-08 8.74228e-08 -1 97.9844 232.229)"/>
</clipPath>
<clipPath id="clip6_1095_49073">
<rect width="14.3223" height="13.7128" fill="white" transform="matrix(-4.37114e-08 -1 -1 4.37114e-08 112.004 221.259)"/>
</clipPath>
</defs>
</svg>
